<svg xmlns="http://www.w3.org/2000/svg" xmlns:xlink="http://www.w3.org/1999/xlink" width="500" zoomAndPan="magnify" viewBox="0 0 375 374.999991" height="500" preserveAspectRatio="xMidYMid meet" version="1.0"><defs><g/><clipPath id="d8ae7a746c"><path d="M 83 78 L 304 78 L 304 296 L 83 296 Z M 83 78 " clip-rule="nonzero"/></clipPath><clipPath id="d3499123a4"><path d="M 98.335938 72.734375 L 319.125 95.902344 L 296.738281 309.230469 L 75.949219 286.0625 Z M 98.335938 72.734375 " clip-rule="nonzero"/></clipPath><clipPath id="39396d6221"><path d="M 98.335938 72.734375 L 319.125 95.902344 L 296.738281 309.230469 L 75.949219 286.0625 Z M 98.335938 72.734375 " clip-rule="nonzero"/></clipPath><clipPath id="225e2f8c4c"><path d="M 106 43 L 285.222656 43 L 285.222656 233 L 106 233 Z M 106 43 " clip-rule="nonzero"/></clipPath></defs><g clip-path="url(#d8ae7a746c)"><g clip-path="url(#d3499123a4)"><g clip-path="url(#39396d6221)"><path fill="#efebe0" d="M 84.859375 204.859375 C 91.253906 143.925781 98.308594 72.816406 159.164062 79.203125 C 220.023438 85.589844 309.515625 187.238281 303.121094 248.171875 C 296.726562 309.109375 215.542969 296.347656 154.683594 289.960938 C 93.828125 283.574219 78.464844 265.792969 84.859375 204.859375 " fill-opacity="1" fill-rule="nonzero"/></g></g></g><g clip-path="url(#225e2f8c4c)"><path stroke-linecap="round" transform="matrix(0.0755855, 0, 0, 0.0756367, 106.174874, 43.036953)" fill="none" stroke-linejoin="round" d="M 2354.910128 2496.491524 C 2134.753742 2501.50108 1929.946287 2452.076895 1737.542009 2345.843301 C 1702.192956 2326.321523 1647.877378 2285.212169 1606.740175 2310.569823 C 1587.618611 2322.396509 1597.437793 2343.467635 1613.820322 2351.989046 C 1635.215802 2363.041058 1660.125515 2359.116045 1683.123072 2357.050248 C 1710.51342 2354.571292 1737.903769 2352.092336 1764.984038 2347.082779 C 1816.7673 2337.42518 1868.550563 2320.537292 1912.53016 2290.944754 C 1977.905237 2247.046575 2018.422281 2168.339722 2016.148365 2089.632869 C 1988.086178 2090.872347 1964.106703 2068.406808 1951.290087 2043.462313 C 1938.421791 2018.517818 1933.150441 1990.319693 1921.367423 1964.910394 C 1891.754839 1901.128922 1818.110978 1861.000822 1748.498149 1870.606776 C 1686.172186 1879.179832 1630.357891 1922.871432 1567.515129 1919.927672 C 1522.346894 1917.758585 1479.400895 1889.095656 1460.124291 1848.192882 C 1447.204316 1906.241769 1449.633271 1963.670916 1467.256118 2020.42868 C 1474.646344 2043.978762 1484.517205 2070.059445 1473.716106 2092.215114 C 1461.829728 2116.591515 1428.75459 2124.028383 1402.966319 2115.558617 C 1333.715249 2092.834853 1276.040478 2003.747372 1254.593318 1938.261617 C 1230.510483 1864.770901 1226.78953 1786.890366 1216.14347 1710.869048 C 1192.732474 1543.384583 1129.838033 1404.924561 991.749333 1298.071228 C 874.332594 1207.227819 728.078469 1153.930265 580.635706 1140.915746 C 474.071747 1131.516371 371.43546 1140.141072 291.64169 1222.204845 C 237.326112 1278.084645 214.380235 1321.156506 200.271622 1396.351505 C 182.907174 1488.692616 204.871133 1580.310699 250.091048 1663.149145 C 281.667469 1721.146387 324.975227 1772.274854 354.691171 1831.201705 C 378.515606 1878.405159 393.967897 1934.698118 382.391599 1987.479223 C 370.970341 2039.692234 333.140652 2060.195266 348.282863 2115.506972 C 375.363132 2214.406988 453.089706 2291.719428 496.397465 2383.130931 C 504.614569 2400.483623 511.849756 2418.610989 523.839493 2433.588015 C 576.139555 2498.815545 709.318664 2492.618155 783.996124 2491.017162 L 881.981219 2488.951366 C 841.567535 2481.927657 800.843772 2474.800658 762.548964 2460.185147 C 693.349574 2433.74295 648.646458 2383.234221 630.196733 2311.396142 C 606.423978 2218.745161 659.395878 2185.692414 722.652079 2128.728071 C 792.574987 2065.721272 844.616649 1973.121936 868.751164 1882.898266 C 898.415428 1772.171565 886.99417 1649.308307 829.371078 1550.253357 C 756.915854 1425.685817 622.496427 1350.800688 488.12868 1298.845902 C 386.009192 1259.389185 267.972294 1241.313464 169.987199 1185.536954 C -34.923616 1068.974377 -3.398875 793.190521 68.797949 607.4754 C 150.348836 397.745392 247.662093 211.203953 77.790252 13.765435 " stroke="#000000" stroke-width="27.542" stroke-opacity="1" stroke-miterlimit="4"/></g><g fill="#000000" fill-opacity="1"><g transform="translate(50.108938, 280.256925)"><g><path d="M 12.125 -36.105469 C 12.125 -36.105469 12.257812 -36.105469 12.394531 -36.238281 C 23.710938 -40.148438 42.300781 -42.707031 53.214844 -42.707031 C 61.835938 -42.707031 67.765625 -41.222656 68.167969 -39.070312 C 68.304688 -38.664062 68.574219 -38.394531 68.976562 -38.394531 C 69.382812 -38.394531 69.785156 -38.800781 69.785156 -39.203125 L 69.652344 -39.339844 C 69.113281 -42.707031 62.914062 -44.324219 53.214844 -44.324219 C 42.167969 -44.324219 23.304688 -41.628906 11.855469 -37.585938 C 11.585938 -37.585938 11.316406 -37.183594 11.316406 -36.914062 C 11.316406 -36.507812 11.71875 -36.105469 12.125 -36.105469 Z M 4.714844 5.523438 C 5.121094 5.523438 5.390625 5.390625 5.523438 4.984375 C 6.601562 1.210938 11.71875 -5.925781 20.207031 -15.628906 C 26.675781 -16.4375 33.410156 -16.707031 38.664062 -16.167969 C 39.203125 -16.167969 39.472656 -16.570312 39.472656 -16.976562 C 39.472656 -17.378906 39.203125 -17.78125 38.800781 -17.78125 C 33.949219 -18.1875 27.886719 -18.050781 21.824219 -17.378906 C 26.808594 -23.039062 32.738281 -29.367188 39.609375 -36.507812 C 39.742188 -36.644531 39.878906 -36.777344 39.878906 -37.046875 C 39.878906 -37.453125 39.472656 -37.722656 39.070312 -37.722656 C 38.933594 -37.722656 38.664062 -37.722656 38.53125 -37.585938 C 30.984375 -29.90625 24.652344 -23.039062 19.535156 -17.109375 C 15.222656 -16.570312 11.046875 -15.761719 7.542969 -14.820312 C 7.273438 -14.683594 7.003906 -14.414062 7.003906 -14.011719 C 7.003906 -13.605469 7.410156 -13.335938 7.8125 -13.335938 L 8.082031 -13.335938 C 10.914062 -14.144531 14.414062 -14.820312 17.917969 -15.359375 C 9.96875 -6.0625 5.121094 0.671875 4.042969 4.582031 C 3.90625 4.582031 3.90625 4.714844 3.90625 4.851562 C 3.90625 5.253906 4.3125 5.523438 4.714844 5.523438 Z M 4.714844 5.523438 "/></g></g></g><g fill="#000000" fill-opacity="1"><g transform="translate(89.443676, 280.256925)"><g><path d="M 15.898438 0 C 20.613281 0 33.679688 -5.792969 40.550781 -10.507812 C 40.683594 -10.644531 40.820312 -10.777344 40.820312 -11.046875 C 40.820312 -11.453125 40.550781 -11.855469 40.148438 -11.855469 C 39.878906 -11.855469 39.742188 -11.855469 39.609375 -11.71875 C 32.601562 -6.871094 20.074219 -1.480469 15.898438 -1.480469 C 13.472656 -1.480469 12.527344 -2.289062 12.527344 -4.042969 C 12.527344 -6.601562 15.492188 -9.96875 17.511719 -12.257812 C 18.996094 -14.011719 20.207031 -15.761719 18.320312 -15.761719 C 17.511719 -15.761719 15.761719 -14.28125 11.453125 -10.777344 C 4.582031 -5.253906 0.671875 -2.558594 -0.941406 -2.558594 C -1.210938 -2.558594 -1.347656 -2.828125 -1.347656 -3.234375 C -1.347656 -4.984375 1.347656 -8.621094 5.925781 -12.664062 C 6.0625 -12.796875 6.195312 -12.933594 6.195312 -13.203125 C 6.195312 -13.605469 5.792969 -14.011719 5.390625 -14.011719 C 5.121094 -14.011719 4.984375 -13.875 4.851562 -13.742188 C -0.132812 -9.296875 -2.964844 -5.523438 -2.964844 -3.097656 C -2.964844 -1.886719 -2.15625 -1.078125 -0.941406 -1.078125 C 1.210938 -1.078125 5.121094 -3.636719 12.394531 -9.566406 C 14.011719 -10.777344 13.875 -10.507812 12.933594 -9.160156 C 11.855469 -7.410156 11.046875 -5.660156 11.046875 -4.042969 C 11.046875 -1.347656 12.664062 0 15.898438 0 Z M 15.898438 0 "/></g></g></g><g fill="#000000" fill-opacity="1"><g transform="translate(126.488392, 280.256925)"><g><path d="M 1.75 14.550781 C 9.835938 14.550781 33.277344 -0.671875 46.746094 -10.375 C 46.882812 -10.507812 47.015625 -10.777344 47.015625 -11.046875 C 47.015625 -11.453125 46.746094 -11.71875 46.210938 -11.71875 C 46.074219 -11.71875 45.941406 -11.71875 45.804688 -11.585938 C 32.46875 -1.886719 9.429688 12.933594 1.75 12.933594 C 0.132812 12.933594 -0.402344 12.394531 -0.402344 11.046875 C -0.402344 7.140625 6.464844 0.402344 13.066406 -6.0625 C 18.859375 -11.855469 24.652344 -17.511719 24.652344 -20.746094 C 24.652344 -22.363281 22.769531 -23.441406 20.476562 -25.597656 C 25.597656 -31.121094 29.367188 -36.105469 29.367188 -37.992188 C 29.367188 -38.933594 28.832031 -39.609375 27.886719 -39.609375 C 23.710938 -39.609375 14.28125 -32.46875 14.28125 -29.097656 C 14.28125 -27.886719 15.628906 -26.945312 18.050781 -25.328125 C 13.605469 -20.613281 7.949219 -15.492188 2.558594 -11.585938 C 2.425781 -11.453125 2.289062 -11.183594 2.289062 -11.046875 C 2.289062 -10.507812 2.558594 -10.238281 2.964844 -10.238281 C 3.234375 -10.238281 3.367188 -10.238281 3.503906 -10.375 C 8.351562 -13.875 14.414062 -19.265625 19.398438 -24.519531 C 22.09375 -22.632812 23.039062 -21.691406 23.039062 -20.746094 C 23.039062 -18.1875 17.78125 -12.933594 11.988281 -7.273438 C 5.390625 -0.671875 -1.886719 6.464844 -1.886719 11.046875 C -1.886719 13.203125 -0.808594 14.550781 1.75 14.550781 Z M 19.128906 -26.40625 C 16.707031 -28.023438 15.898438 -28.832031 15.898438 -29.097656 C 15.898438 -31.390625 23.574219 -37.183594 27.214844 -37.855469 C 27.617188 -37.992188 27.886719 -37.722656 27.753906 -37.316406 C 26.808594 -35.027344 21.960938 -29.367188 19.128906 -26.40625 Z M 19.128906 -26.40625 "/></g></g></g><g fill="#000000" fill-opacity="1"><g transform="translate(169.729661, 280.256925)"><g><path d="M -28.425781 34.21875 C -27.753906 34.21875 -26.945312 33.140625 -26.269531 32.0625 C -26 31.660156 -26 31.253906 -26.269531 31.121094 C -13.472656 11.046875 2.828125 -9.96875 19.535156 -29.503906 C 31.253906 -30.042969 43.246094 -30.042969 54.695312 -29.636719 C 55.234375 -29.636719 55.503906 -29.90625 55.503906 -30.3125 C 55.503906 -30.714844 55.234375 -31.121094 54.832031 -31.121094 C 43.648438 -31.523438 32.199219 -31.523438 21.015625 -31.121094 C 28.292969 -39.609375 35.566406 -47.824219 42.839844 -55.640625 C 42.976562 -55.773438 42.976562 -56.042969 42.976562 -56.179688 C 42.976562 -56.582031 42.707031 -56.988281 42.167969 -56.988281 C 42.03125 -56.988281 41.761719 -56.851562 41.628906 -56.71875 C 34.085938 -48.5 26.40625 -39.878906 18.859375 -30.984375 C 6.734375 -30.582031 -4.984375 -29.636719 -15.492188 -28.292969 C -15.898438 -28.15625 -16.167969 -27.886719 -16.167969 -27.484375 C -16.167969 -27.078125 -15.761719 -26.675781 -15.359375 -26.675781 L -15.222656 -26.675781 C -5.253906 -28.023438 5.925781 -28.964844 17.511719 -29.503906 C 0.539062 -9.566406 -15.761719 11.585938 -28.695312 31.929688 C -28.832031 32.199219 -28.964844 32.46875 -29.097656 32.738281 L -29.234375 32.871094 C -29.503906 33.679688 -29.367188 34.21875 -28.425781 34.21875 Z M -28.425781 34.21875 "/></g></g></g><g fill="#000000" fill-opacity="1"><g transform="translate(189.801156, 280.256925)"><g><path d="M 18.1875 0.132812 C 22.902344 0.132812 35.296875 -4.984375 42.839844 -10.375 C 42.976562 -10.507812 43.109375 -10.777344 43.109375 -11.046875 C 43.109375 -11.453125 42.839844 -11.71875 42.4375 -11.71875 C 42.167969 -11.71875 42.03125 -11.71875 41.898438 -11.585938 C 34.355469 -5.925781 22.363281 -1.480469 18.1875 -1.480469 C 15.898438 -1.480469 14.820312 -2.15625 14.820312 -3.90625 C 14.820312 -6.464844 16.976562 -9.699219 18.589844 -11.988281 C 19.535156 -13.335938 20.074219 -14.144531 20.074219 -14.683594 C 20.074219 -15.222656 19.667969 -15.628906 19.128906 -15.628906 C 18.457031 -15.628906 16.839844 -14.550781 14.011719 -12.394531 C 13.203125 -13.875 12.257812 -14.414062 10.238281 -14.414062 C 5.660156 -14.414062 -6.464844 -6.871094 -6.464844 -2.289062 C -6.464844 -0.941406 -5.523438 -0.132812 -4.042969 -0.132812 C -0.269531 -0.132812 8.082031 -6.332031 13.742188 -10.375 C 14.820312 -11.183594 15.761719 -11.855469 16.4375 -12.257812 C 16.707031 -12.527344 17.109375 -12.394531 16.707031 -11.988281 C 15.089844 -9.566406 13.335938 -6.601562 13.335938 -3.90625 C 13.335938 -1.210938 14.953125 0.132812 18.1875 0.132812 Z M -4.042969 -1.75 C -4.714844 -1.75 -4.984375 -1.886719 -4.984375 -2.289062 C -4.984375 -5.523438 5.660156 -12.933594 10.238281 -12.933594 C 11.71875 -12.933594 12.125 -12.664062 12.664062 -11.585938 C 7.140625 -7.410156 -0.808594 -1.75 -4.042969 -1.75 Z M -4.042969 -1.75 "/></g></g></g><g fill="#000000" fill-opacity="1"><g transform="translate(229.135894, 280.256925)"><g><path d="M -0.539062 6.464844 C 3.90625 6.464844 9.699219 1.75 12.394531 -2.15625 L 12.796875 -2.425781 C 16.300781 -3.503906 20.613281 -4.851562 25.191406 -6.195312 C 29.773438 -7.542969 34.625 -8.890625 38.664062 -10.238281 C 39.070312 -10.375 39.203125 -10.644531 39.203125 -11.046875 C 39.203125 -11.453125 38.933594 -11.71875 38.53125 -11.71875 L 38.261719 -11.71875 C 34.21875 -10.375 29.367188 -9.027344 24.789062 -7.679688 C 21.015625 -6.601562 17.246094 -5.390625 14.011719 -4.445312 C 13.875 -4.3125 13.742188 -4.445312 13.742188 -4.714844 C 13.875 -4.984375 13.875 -5.253906 14.011719 -5.390625 C 14.011719 -6.734375 13.066406 -7.273438 11.453125 -7.273438 C 10.375 -7.273438 9.027344 -7.003906 7.542969 -6.734375 C 6.0625 -6.464844 4.445312 -6.195312 3.234375 -6.195312 C 2.019531 -6.195312 1.617188 -6.464844 1.617188 -6.871094 C 1.617188 -9.96875 8.621094 -15.359375 12.664062 -15.359375 C 13.335938 -15.359375 13.472656 -15.089844 13.472656 -14.683594 C 13.472656 -13.742188 12.257812 -12.257812 11.316406 -11.71875 C 11.046875 -11.585938 10.914062 -11.316406 10.914062 -11.046875 C 10.914062 -10.507812 11.316406 -10.238281 11.71875 -10.238281 C 11.855469 -10.238281 11.988281 -10.238281 12.125 -10.375 C 13.335938 -11.046875 14.550781 -12.664062 14.953125 -14.28125 C 15.089844 -14.414062 15.089844 -14.683594 15.089844 -14.820312 C 15.089844 -16.03125 14.144531 -16.839844 12.664062 -16.839844 C 7.8125 -16.839844 0 -10.777344 0 -6.871094 C 0 -5.390625 1.210938 -4.714844 3.234375 -4.714844 C 4.582031 -4.714844 6.195312 -4.984375 7.8125 -5.253906 C 8.890625 -5.390625 12.257812 -5.925781 12.394531 -5.523438 C 12.664062 -5.121094 12.125 -4.445312 11.71875 -3.773438 C 11.71875 -3.636719 11.585938 -3.636719 11.453125 -3.636719 C 6.0625 -1.617188 -2.828125 2.15625 -2.828125 4.714844 C -2.828125 5.925781 -2.019531 6.464844 -0.539062 6.464844 Z M -0.539062 4.851562 C -1.210938 4.851562 -1.347656 4.851562 -1.347656 4.582031 C -1.347656 3.90625 3.367188 1.210938 9.027344 -1.078125 C 9.429688 -1.078125 9.566406 -0.941406 9.296875 -0.671875 C 6.601562 2.15625 2.558594 4.851562 -0.539062 4.851562 Z M -0.539062 4.851562 "/></g></g></g><g fill="#000000" fill-opacity="1"><g transform="translate(264.564102, 280.256925)"><g><path d="M -28.425781 34.21875 C -27.753906 34.21875 -26.945312 33.140625 -26.269531 32.0625 C -26 31.660156 -26 31.253906 -26.269531 31.121094 C -13.472656 11.046875 2.828125 -9.96875 19.535156 -29.503906 C 31.253906 -30.042969 43.246094 -30.042969 54.695312 -29.636719 C 55.234375 -29.636719 55.503906 -29.90625 55.503906 -30.3125 C 55.503906 -30.714844 55.234375 -31.121094 54.832031 -31.121094 C 43.648438 -31.523438 32.199219 -31.523438 21.015625 -31.121094 C 28.292969 -39.609375 35.566406 -47.824219 42.839844 -55.640625 C 42.976562 -55.773438 42.976562 -56.042969 42.976562 -56.179688 C 42.976562 -56.582031 42.707031 -56.988281 42.167969 -56.988281 C 42.03125 -56.988281 41.761719 -56.851562 41.628906 -56.71875 C 34.085938 -48.5 26.40625 -39.878906 18.859375 -30.984375 C 6.734375 -30.582031 -4.984375 -29.636719 -15.492188 -28.292969 C -15.898438 -28.15625 -16.167969 -27.886719 -16.167969 -27.484375 C -16.167969 -27.078125 -15.761719 -26.675781 -15.359375 -26.675781 L -15.222656 -26.675781 C -5.253906 -28.023438 5.925781 -28.964844 17.511719 -29.503906 C 0.539062 -9.566406 -15.761719 11.585938 -28.695312 31.929688 C -28.832031 32.199219 -28.964844 32.46875 -29.097656 32.738281 L -29.234375 32.871094 C -29.503906 33.679688 -29.367188 34.21875 -28.425781 34.21875 Z M -28.425781 34.21875 "/></g></g></g><g fill="#000000" fill-opacity="1"><g transform="translate(284.635598, 280.256925)"><g><path d="M 9.699219 -17.378906 C 9.96875 -17.378906 10.105469 -17.378906 10.238281 -17.648438 L 10.777344 -18.1875 C 11.183594 -18.859375 11.71875 -19.535156 11.988281 -19.804688 C 12.125 -19.9375 12.125 -20.207031 12.125 -20.34375 C 12.125 -20.746094 11.855469 -21.152344 11.453125 -21.152344 C 11.183594 -21.152344 10.914062 -21.015625 10.777344 -20.882812 C 10.507812 -20.476562 9.96875 -19.667969 9.566406 -19.128906 L 9.027344 -18.589844 C 8.890625 -18.457031 8.890625 -18.320312 8.890625 -18.050781 C 8.890625 -17.648438 9.296875 -17.378906 9.699219 -17.378906 Z M 1.078125 0.808594 C 5.660156 0.808594 19.804688 -5.792969 27.078125 -10.375 C 27.214844 -10.507812 27.347656 -10.777344 27.347656 -11.046875 C 27.347656 -11.453125 27.078125 -11.71875 26.539062 -11.71875 L 26.136719 -11.71875 C 19.128906 -7.140625 5.253906 -0.808594 1.078125 -0.808594 C -0.402344 -0.808594 -1.078125 -1.347656 -1.078125 -2.695312 C -1.078125 -4.582031 2.15625 -9.160156 6.734375 -13.875 C 6.871094 -14.011719 7.003906 -14.144531 7.003906 -14.414062 C 7.003906 -14.820312 6.601562 -15.089844 6.195312 -15.089844 C 5.925781 -15.089844 5.792969 -15.089844 5.660156 -14.953125 C 0.671875 -9.835938 -2.558594 -5.253906 -2.558594 -2.695312 C -2.558594 -0.539062 -1.210938 0.808594 1.078125 0.808594 Z M 1.078125 0.808594 "/></g></g></g><g fill="#000000" fill-opacity="1"><g transform="translate(308.209515, 280.256925)"><g><path d="M 3.636719 0.671875 C 10.914062 0.671875 23.039062 -3.90625 32.738281 -10.375 C 33.007812 -10.507812 33.140625 -10.777344 33.140625 -11.046875 C 33.140625 -11.453125 32.738281 -11.71875 32.332031 -11.71875 C 32.199219 -11.71875 32.0625 -11.71875 31.929688 -11.585938 C 22.363281 -5.390625 10.644531 -0.941406 3.636719 -0.941406 C 0.671875 -0.941406 -0.402344 -1.480469 -0.402344 -3.367188 L -0.402344 -4.445312 C 0.402344 -8.21875 5.792969 -13.335938 9.160156 -13.335938 C 9.699219 -13.335938 10.105469 -13.066406 10.105469 -12.664062 C 9.96875 -11.71875 8.890625 -10.375 7.8125 -9.699219 C 7.679688 -9.566406 7.410156 -9.296875 7.410156 -9.027344 C 7.410156 -8.621094 7.8125 -8.21875 8.21875 -8.21875 C 8.351562 -8.21875 8.488281 -8.351562 8.621094 -8.351562 C 10.238281 -9.296875 11.585938 -11.316406 11.585938 -12.933594 C 11.585938 -14.144531 10.644531 -14.953125 9.160156 -14.953125 C 5.121094 -14.953125 -1.078125 -9.160156 -1.886719 -4.714844 C -2.019531 -4.175781 -2.019531 -3.773438 -2.019531 -3.367188 C -2.019531 -0.539062 -0.132812 0.671875 3.636719 0.671875 Z M 3.636719 0.671875 "/></g></g></g><g fill="#b2a490" fill-opacity="1"><g transform="translate(94.026894, 316.476902)"><g><path d="M 4.28125 -4.875 C 4.664062 -4.875 5.007812 -4.925781 5.3125 -5.03125 C 5.613281 -5.132812 5.863281 -5.273438 6.0625 -5.453125 C 6.269531 -5.640625 6.425781 -5.863281 6.53125 -6.125 C 6.632812 -6.382812 6.6875 -6.671875 6.6875 -6.984375 C 6.6875 -7.628906 6.488281 -8.132812 6.09375 -8.5 C 5.695312 -8.863281 5.09375 -9.046875 4.28125 -9.046875 L 2.65625 -9.046875 L 2.65625 -4.875 Z M 4.28125 -10.125 C 4.914062 -10.125 5.46875 -10.046875 5.9375 -9.890625 C 6.414062 -9.742188 6.8125 -9.535156 7.125 -9.265625 C 7.4375 -8.992188 7.664062 -8.664062 7.8125 -8.28125 C 7.96875 -7.894531 8.046875 -7.460938 8.046875 -6.984375 C 8.046875 -6.515625 7.960938 -6.082031 7.796875 -5.6875 C 7.640625 -5.300781 7.398438 -4.96875 7.078125 -4.6875 C 6.765625 -4.40625 6.375 -4.179688 5.90625 -4.015625 C 5.4375 -3.859375 4.894531 -3.78125 4.28125 -3.78125 L 2.65625 -3.78125 L 2.65625 0 L 1.296875 0 L 1.296875 -10.125 Z M 4.28125 -10.125 "/></g></g></g><g fill="#b2a490" fill-opacity="1"><g transform="translate(108.159172, 316.476902)"><g><path d="M 7.53125 -1.109375 L 7.53125 0 L 1.296875 0 L 1.296875 -10.125 L 7.53125 -10.125 L 7.53125 -9 L 2.65625 -9 L 2.65625 -5.640625 L 6.609375 -5.640625 L 6.609375 -4.5625 L 2.65625 -4.5625 L 2.65625 -1.109375 Z M 7.53125 -1.109375 "/></g></g></g><g fill="#b2a490" fill-opacity="1"><g transform="translate(121.966571, 316.476902)"><g><path d="M 8.140625 -8.96875 L 4.859375 -8.96875 L 4.859375 0 L 3.5 0 L 3.5 -8.96875 L 0.21875 -8.96875 L 0.21875 -10.125 L 8.140625 -10.125 Z M 8.140625 -8.96875 "/></g></g></g><g fill="#b2a490" fill-opacity="1"><g transform="translate(135.957587, 316.476902)"><g/></g></g><g fill="#b2a490" fill-opacity="1"><g transform="translate(145.223711, 316.476902)"><g><path d="M 11.828125 -10.125 L 11.828125 0 L 10.625 0 L 10.625 -7.4375 C 10.625 -7.53125 10.625 -7.632812 10.625 -7.75 C 10.632812 -7.863281 10.644531 -7.976562 10.65625 -8.09375 L 7.1875 -1.765625 C 7.070312 -1.554688 6.90625 -1.453125 6.6875 -1.453125 L 6.484375 -1.453125 C 6.265625 -1.453125 6.101562 -1.554688 6 -1.765625 L 2.453125 -8.125 C 2.484375 -7.875 2.5 -7.644531 2.5 -7.4375 L 2.5 0 L 1.296875 0 L 1.296875 -10.125 L 2.296875 -10.125 C 2.421875 -10.125 2.515625 -10.109375 2.578125 -10.078125 C 2.648438 -10.054688 2.71875 -9.992188 2.78125 -9.890625 L 6.265625 -3.65625 C 6.328125 -3.539062 6.382812 -3.421875 6.4375 -3.296875 C 6.488281 -3.179688 6.539062 -3.0625 6.59375 -2.9375 C 6.632812 -3.0625 6.679688 -3.1875 6.734375 -3.3125 C 6.785156 -3.4375 6.84375 -3.554688 6.90625 -3.671875 L 10.34375 -9.890625 C 10.394531 -9.992188 10.453125 -10.054688 10.515625 -10.078125 C 10.585938 -10.109375 10.6875 -10.125 10.8125 -10.125 Z M 11.828125 -10.125 "/></g></g></g><g fill="#b2a490" fill-opacity="1"><g transform="translate(163.989062, 316.476902)"><g><path d="M 6.671875 -3.75 L 5.078125 -7.875 C 5.023438 -8 4.972656 -8.140625 4.921875 -8.296875 C 4.878906 -8.460938 4.832031 -8.640625 4.78125 -8.828125 C 4.6875 -8.441406 4.585938 -8.125 4.484375 -7.875 L 2.890625 -3.75 Z M 9.515625 0 L 8.453125 0 C 8.335938 0 8.238281 -0.03125 8.15625 -0.09375 C 8.082031 -0.15625 8.03125 -0.234375 8 -0.328125 L 7.046875 -2.765625 L 2.5 -2.765625 L 1.5625 -0.328125 C 1.53125 -0.242188 1.472656 -0.164062 1.390625 -0.09375 C 1.316406 -0.03125 1.222656 0 1.109375 0 L 0.046875 0 L 4.09375 -10.125 L 5.46875 -10.125 Z M 9.515625 0 "/></g></g></g><g fill="#b2a490" fill-opacity="1"><g transform="translate(179.201917, 316.476902)"><g><path d="M 9.484375 -10.125 L 9.484375 0 L 8.8125 0 C 8.695312 0 8.601562 -0.015625 8.53125 -0.046875 C 8.457031 -0.0859375 8.382812 -0.15625 8.3125 -0.25 L 2.46875 -7.875 C 2.476562 -7.757812 2.484375 -7.644531 2.484375 -7.53125 C 2.492188 -7.414062 2.5 -7.304688 2.5 -7.203125 L 2.5 0 L 1.296875 0 L 1.296875 -10.125 L 2 -10.125 C 2.0625 -10.125 2.113281 -10.117188 2.15625 -10.109375 C 2.195312 -10.097656 2.234375 -10.082031 2.265625 -10.0625 C 2.296875 -10.050781 2.328125 -10.03125 2.359375 -10 C 2.398438 -9.96875 2.4375 -9.929688 2.46875 -9.890625 L 8.328125 -2.265625 C 8.316406 -2.390625 8.304688 -2.507812 8.296875 -2.625 C 8.296875 -2.738281 8.296875 -2.847656 8.296875 -2.953125 L 8.296875 -10.125 Z M 9.484375 -10.125 "/></g></g></g><g fill="#b2a490" fill-opacity="1"><g transform="translate(195.636609, 316.476902)"><g><path d="M 6.671875 -3.75 L 5.078125 -7.875 C 5.023438 -8 4.972656 -8.140625 4.921875 -8.296875 C 4.878906 -8.460938 4.832031 -8.640625 4.78125 -8.828125 C 4.6875 -8.441406 4.585938 -8.125 4.484375 -7.875 L 2.890625 -3.75 Z M 9.515625 0 L 8.453125 0 C 8.335938 0 8.238281 -0.03125 8.15625 -0.09375 C 8.082031 -0.15625 8.03125 -0.234375 8 -0.328125 L 7.046875 -2.765625 L 2.5 -2.765625 L 1.5625 -0.328125 C 1.53125 -0.242188 1.472656 -0.164062 1.390625 -0.09375 C 1.316406 -0.03125 1.222656 0 1.109375 0 L 0.046875 0 L 4.09375 -10.125 L 5.46875 -10.125 Z M 9.515625 0 "/></g></g></g><g fill="#b2a490" fill-opacity="1"><g transform="translate(210.849464, 316.476902)"><g><path d="M 9.515625 -4.859375 L 9.515625 -0.984375 C 9.003906 -0.617188 8.457031 -0.34375 7.875 -0.15625 C 7.300781 0.0195312 6.671875 0.109375 5.984375 0.109375 C 5.171875 0.109375 4.4375 -0.015625 3.78125 -0.265625 C 3.125 -0.515625 2.5625 -0.863281 2.09375 -1.3125 C 1.632812 -1.769531 1.28125 -2.316406 1.03125 -2.953125 C 0.78125 -3.585938 0.65625 -4.289062 0.65625 -5.0625 C 0.65625 -5.832031 0.773438 -6.535156 1.015625 -7.171875 C 1.265625 -7.804688 1.613281 -8.347656 2.0625 -8.796875 C 2.507812 -9.253906 3.050781 -9.609375 3.6875 -9.859375 C 4.332031 -10.109375 5.050781 -10.234375 5.84375 -10.234375 C 6.238281 -10.234375 6.609375 -10.203125 6.953125 -10.140625 C 7.296875 -10.085938 7.613281 -10.003906 7.90625 -9.890625 C 8.195312 -9.773438 8.46875 -9.640625 8.71875 -9.484375 C 8.96875 -9.328125 9.203125 -9.148438 9.421875 -8.953125 L 9.03125 -8.328125 C 8.96875 -8.234375 8.890625 -8.171875 8.796875 -8.140625 C 8.703125 -8.117188 8.59375 -8.144531 8.46875 -8.21875 C 8.363281 -8.28125 8.238281 -8.359375 8.09375 -8.453125 C 7.945312 -8.554688 7.765625 -8.648438 7.546875 -8.734375 C 7.335938 -8.816406 7.09375 -8.890625 6.8125 -8.953125 C 6.53125 -9.015625 6.191406 -9.046875 5.796875 -9.046875 C 5.222656 -9.046875 4.707031 -8.953125 4.25 -8.765625 C 3.789062 -8.578125 3.394531 -8.3125 3.0625 -7.96875 C 2.738281 -7.625 2.488281 -7.203125 2.3125 -6.703125 C 2.144531 -6.210938 2.0625 -5.664062 2.0625 -5.0625 C 2.0625 -4.425781 2.148438 -3.851562 2.328125 -3.34375 C 2.515625 -2.84375 2.773438 -2.414062 3.109375 -2.0625 C 3.441406 -1.71875 3.847656 -1.453125 4.328125 -1.265625 C 4.816406 -1.085938 5.359375 -1 5.953125 -1 C 6.421875 -1 6.835938 -1.050781 7.203125 -1.15625 C 7.566406 -1.257812 7.925781 -1.40625 8.28125 -1.59375 L 8.28125 -3.828125 L 6.703125 -3.828125 C 6.609375 -3.828125 6.535156 -3.847656 6.484375 -3.890625 C 6.429688 -3.941406 6.40625 -4.007812 6.40625 -4.09375 L 6.40625 -4.859375 Z M 9.515625 -4.859375 "/></g></g></g><g fill="#b2a490" fill-opacity="1"><g transform="translate(226.818031, 316.476902)"><g><path d="M 7.53125 -1.109375 L 7.53125 0 L 1.296875 0 L 1.296875 -10.125 L 7.53125 -10.125 L 7.53125 -9 L 2.65625 -9 L 2.65625 -5.640625 L 6.609375 -5.640625 L 6.609375 -4.5625 L 2.65625 -4.5625 L 2.65625 -1.109375 Z M 7.53125 -1.109375 "/></g></g></g><g fill="#b2a490" fill-opacity="1"><g transform="translate(240.625434, 316.476902)"><g><path d="M 11.828125 -10.125 L 11.828125 0 L 10.625 0 L 10.625 -7.4375 C 10.625 -7.53125 10.625 -7.632812 10.625 -7.75 C 10.632812 -7.863281 10.644531 -7.976562 10.65625 -8.09375 L 7.1875 -1.765625 C 7.070312 -1.554688 6.90625 -1.453125 6.6875 -1.453125 L 6.484375 -1.453125 C 6.265625 -1.453125 6.101562 -1.554688 6 -1.765625 L 2.453125 -8.125 C 2.484375 -7.875 2.5 -7.644531 2.5 -7.4375 L 2.5 0 L 1.296875 0 L 1.296875 -10.125 L 2.296875 -10.125 C 2.421875 -10.125 2.515625 -10.109375 2.578125 -10.078125 C 2.648438 -10.054688 2.71875 -9.992188 2.78125 -9.890625 L 6.265625 -3.65625 C 6.328125 -3.539062 6.382812 -3.421875 6.4375 -3.296875 C 6.488281 -3.179688 6.539062 -3.0625 6.59375 -2.9375 C 6.632812 -3.0625 6.679688 -3.1875 6.734375 -3.3125 C 6.785156 -3.4375 6.84375 -3.554688 6.90625 -3.671875 L 10.34375 -9.890625 C 10.394531 -9.992188 10.453125 -10.054688 10.515625 -10.078125 C 10.585938 -10.109375 10.6875 -10.125 10.8125 -10.125 Z M 11.828125 -10.125 "/></g></g></g><g fill="#b2a490" fill-opacity="1"><g transform="translate(259.390789, 316.476902)"><g><path d="M 7.53125 -1.109375 L 7.53125 0 L 1.296875 0 L 1.296875 -10.125 L 7.53125 -10.125 L 7.53125 -9 L 2.65625 -9 L 2.65625 -5.640625 L 6.609375 -5.640625 L 6.609375 -4.5625 L 2.65625 -4.5625 L 2.65625 -1.109375 Z M 7.53125 -1.109375 "/></g></g></g><g fill="#b2a490" fill-opacity="1"><g transform="translate(273.198191, 316.476902)"><g><path d="M 9.484375 -10.125 L 9.484375 0 L 8.8125 0 C 8.695312 0 8.601562 -0.015625 8.53125 -0.046875 C 8.457031 -0.0859375 8.382812 -0.15625 8.3125 -0.25 L 2.46875 -7.875 C 2.476562 -7.757812 2.484375 -7.644531 2.484375 -7.53125 C 2.492188 -7.414062 2.5 -7.304688 2.5 -7.203125 L 2.5 0 L 1.296875 0 L 1.296875 -10.125 L 2 -10.125 C 2.0625 -10.125 2.113281 -10.117188 2.15625 -10.109375 C 2.195312 -10.097656 2.234375 -10.082031 2.265625 -10.0625 C 2.296875 -10.050781 2.328125 -10.03125 2.359375 -10 C 2.398438 -9.96875 2.4375 -9.929688 2.46875 -9.890625 L 8.328125 -2.265625 C 8.316406 -2.390625 8.304688 -2.507812 8.296875 -2.625 C 8.296875 -2.738281 8.296875 -2.847656 8.296875 -2.953125 L 8.296875 -10.125 Z M 9.484375 -10.125 "/></g></g></g><g fill="#b2a490" fill-opacity="1"><g transform="translate(289.632883, 316.476902)"><g><path d="M 8.140625 -8.96875 L 4.859375 -8.96875 L 4.859375 0 L 3.5 0 L 3.5 -8.96875 L 0.21875 -8.96875 L 0.21875 -10.125 L 8.140625 -10.125 Z M 8.140625 -8.96875 "/></g></g></g></svg>