<svg xmlns="http://www.w3.org/2000/svg" xmlns:xlink="http://www.w3.org/1999/xlink" viewBox="0,0,256,256" width="48px" height="48px"><g fill="none" fill-rule="nonzero" stroke="#ffffff" stroke-width="3" stroke-linecap="round" stroke-linejoin="round" stroke-miterlimit="10" stroke-dasharray="" stroke-dashoffset="0" font-family="none" font-weight="none" font-size="none" text-anchor="none" style="mix-blend-mode: normal"><g transform="scale(5.33333,5.33333)"><path d="M17.9,21.1c1.3,2.6 0.8,5.8 -1.5,7.8c-2.7,2.4 -6.8,2.1 -9.2,-0.6c-2.4,-2.7 -2.1,-6.8 0.6,-9.2c1,-0.9 2.3,-1.4 3.6,-1.6"></path><path d="M42.5,12.7c-0.3,3.3 -3.1,5.8 -6.5,5.8c-3.6,0 -6.5,-2.9 -6.5,-6.5c0,-3.6 2.9,-6.5 6.5,-6.5c1.6,0 3.1,0.6 4.2,1.5"></path><path d="M36.4,29c1.6,0.1 3.2,0.9 4.4,2.2c2.3,2.7 2,6.8 -0.7,9.2c-2.7,2.4 -6.8,2 -9.2,-0.7c-1.7,-1.9 -2,-4.6 -1,-6.8"></path><path d="M17.9,21.1l12.3,-6.2"></path><path d="M18.2,27.1l11.6,5.8"></path></g></g></svg>