<svg xmlns="http://www.w3.org/2000/svg" xmlns:xlink="http://www.w3.org/1999/xlink" width="500" zoomAndPan="magnify" viewBox="0 0 375 374.999991" height="500" preserveAspectRatio="xMidYMid meet" version="1.0"><defs><clipPath id="403aae8e7d"><path d="M 29 75 L 303 75 L 303 315 L 29 315 Z M 29 75 " clip-rule="nonzero"/></clipPath><clipPath id="76ba73d6e0"><path d="M 362.34375 197.175781 L 146.441406 400.03125 L -44.085938 197.25 L 171.816406 -5.605469 Z M 362.34375 197.175781 " clip-rule="nonzero"/></clipPath><clipPath id="cb087962a5"><path d="M 362.34375 197.175781 L 146.441406 400.03125 L -44.085938 197.25 L 171.816406 -5.605469 Z M 362.34375 197.175781 " clip-rule="nonzero"/></clipPath><clipPath id="7c821863e4"><path d="M 30 9 L 362.0625 9 L 362.0625 369 L 30 369 Z M 30 9 " clip-rule="nonzero"/></clipPath><clipPath id="491419919f"><path d="M 29.0625 12 L 328 12 L 328 369.636719 L 29.0625 369.636719 Z M 29.0625 12 " clip-rule="nonzero"/></clipPath><clipPath id="9e858a4ee0"><path d="M 144 54 L 341 54 L 341 369.636719 L 144 369.636719 Z M 144 54 " clip-rule="nonzero"/></clipPath><clipPath id="d70a691f0a"><path d="M 86 8.136719 L 360 8.136719 L 360 369.636719 L 86 369.636719 Z M 86 8.136719 " clip-rule="nonzero"/></clipPath></defs><g clip-path="url(#403aae8e7d)"><g clip-path="url(#76ba73d6e0)"><g clip-path="url(#cb087962a5)"><path fill="#faf0f0" d="M 49.832031 187.402344 C 22.324219 223.773438 25.335938 262.6875 44.40625 287.628906 C 59.847656 307.832031 85.820312 318.871094 114.640625 311.96875 C 126.457031 309.140625 137.097656 303.03125 147.984375 296.234375 C 183.539062 274.027344 180.363281 273.980469 220.53125 273.324219 C 282.375 272.308594 321.226562 192.628906 293.53125 138.617188 C 277.007812 106.402344 240.648438 81.058594 177.675781 93.753906 C 138.285156 101.699219 113.414062 56.433594 76.253906 85.730469 C 65.996094 93.816406 58.53125 105.871094 57.984375 118.667969 C 57.089844 139.542969 70.523438 160.050781 49.832031 187.402344 " fill-opacity="1" fill-rule="evenodd"/></g></g></g><g clip-path="url(#7c821863e4)"><path fill="#ebbfa9" d="M 353.265625 174.152344 C 337.15625 158.71875 330.601562 129.679688 318.105469 105.511719 C 317.957031 105.21875 317.800781 104.933594 317.648438 104.644531 C 320.328125 100.359375 321.757812 95.425781 321.757812 90.339844 C 321.753906 84.296875 319.800781 78.582031 316.097656 73.816406 L 315.992188 73.675781 L 314.722656 68.683594 L 311.019531 68.8125 L 310.789062 68.640625 C 309.089844 67.394531 307.242188 66.355469 305.292969 65.546875 L 303.769531 64.914062 L 309.464844 61.445312 L 303.003906 58.132812 L 302.910156 57.773438 C 301.226562 51.480469 297.324219 46.023438 291.921875 42.410156 L 291.511719 42.136719 L 291.550781 41.648438 C 291.621094 40.75 291.652344 39.960938 291.652344 39.234375 C 291.652344 22.566406 278.253906 9.011719 261.78125 9.011719 C 245.558594 9.011719 232.449219 21.855469 231.929688 38.25 L 231.910156 38.859375 L 231.324219 39.027344 C 220.601562 42.148438 212.925781 51.804688 212.222656 63.066406 L 212.179688 63.738281 L 211.511719 63.839844 C 198.699219 65.816406 189.039062 77.207031 189.039062 90.339844 C 189.039062 99.71875 193.972656 108.496094 201.925781 113.328125 C 201.859375 113.617188 201.785156 113.90625 201.726562 114.195312 C 199.707031 123.550781 199.289062 132.902344 200.027344 140.859375 C 201.234375 153.898438 209.675781 158.109375 221.019531 157.53125 C 221.019531 157.53125 221.019531 157.53125 221.023438 157.53125 C 221.292969 157.53125 221.59375 157.503906 221.878906 157.488281 L 219.929688 168.742188 L 219.515625 168.921875 C 204.871094 175.398438 196.316406 188.15625 196.046875 203.921875 C 195.863281 214.851562 200.066406 223.226562 208.902344 229.53125 L 209.332031 229.835938 L 205.109375 254.175781 L 145.828125 254.175781 C 134.808594 254.175781 124.328125 259.503906 117.804688 268.425781 L 117.394531 268.984375 L 116.773438 268.691406 C 109.277344 265.175781 105.933594 254.195312 105.933594 233.085938 C 105.933594 210.472656 84.785156 199.003906 43.078125 199.003906 C 39.289062 199.003906 35.980469 199.09375 33.324219 199.164062 C 32.042969 199.199219 30.960938 199.226562 30.058594 199.238281 C 30.53125 202.605469 33.800781 215.390625 56.074219 223.789062 C 72.660156 230.042969 71.863281 239.308594 71.019531 249.117188 C 70.472656 255.503906 69.90625 262.105469 74.054688 268.546875 C 82.566406 281.746094 89.820312 287.882812 110.324219 289.347656 L 111.101562 289.402344 L 111.101562 333.253906 C 113.65625 340.84375 121.328125 363.753906 122.484375 368.4375 C 123.449219 368.511719 125.585938 368.574219 130.183594 368.574219 C 136.933594 368.574219 145.726562 368.433594 148.488281 368.382812 C 148.359375 367.003906 147.875 364.171875 146.019531 362.292969 C 144.800781 361.0625 143.160156 360.4375 141.144531 360.4375 C 140.117188 360.4375 138.976562 360.601562 137.753906 360.917969 L 137.027344 361.109375 L 136.761719 360.402344 C 136 358.390625 131.402344 337.375 131.207031 336.480469 L 131 335.535156 L 131.964844 335.464844 C 132.015625 335.460938 137.292969 335.039062 143.75 331.128906 L 144.902344 330.429688 L 145.136719 333.132812 C 150.589844 342.757812 162.488281 363.910156 164.324219 368.433594 C 165.238281 368.503906 167.363281 368.578125 172.117188 368.578125 C 178.867188 368.578125 187.65625 368.433594 190.417969 368.382812 C 190.289062 367 189.800781 364.15625 187.949219 362.289062 C 186.730469 361.0625 185.09375 360.441406 183.078125 360.441406 C 182.050781 360.441406 180.910156 360.601562 179.6875 360.917969 L 178.960938 361.109375 L 178.695312 360.40625 C 178.101562 358.832031 168.863281 342.777344 165.355469 336.722656 L 165.011719 336.132812 L 178.933594 323.730469 L 238.628906 323.730469 L 237.984375 324.957031 C 237.703125 325.496094 237.410156 326.046875 237.121094 326.585938 C 237.214844 325.894531 237.308594 325.214844 237.394531 324.566406 C 237.34375 324.566406 237.292969 324.566406 237.242188 324.566406 C 234.019531 330.734375 230.816406 336.496094 228.261719 340.972656 C 228.414062 341.261719 228.574219 341.546875 228.738281 341.828125 C 226.5 345.75 224.773438 348.667969 224.027344 349.917969 C 225.285156 351.160156 229.03125 354.746094 233.671875 358.050781 L 234.054688 358.320312 L 234.023438 358.789062 C 233.777344 362.421875 234.332031 364.828125 235.761719 366.363281 C 237.152344 367.851562 239.421875 368.574219 242.699219 368.574219 L 260.445312 368.570312 C 260.394531 367.914062 260.230469 366.917969 259.734375 365.863281 L 259.167969 364.667969 L 280.308594 364.667969 L 280.558594 364.964844 C 282.078125 366.769531 283.15625 368.039062 283.617188 368.582031 L 311.28125 368.574219 C 311.085938 367.890625 310.761719 366.914062 310.273438 365.859375 L 309.722656 364.667969 L 348.515625 364.667969 C 348.648438 362.195312 348.554688 354.285156 342.171875 352.890625 C 341.609375 352.765625 341.023438 352.628906 340.375 352.46875 C 339.777344 352.320312 339.160156 352.15625 338.453125 351.964844 C 337.828125 351.792969 337.1875 351.613281 336.457031 351.402344 C 335.800781 351.210938 335.136719 351.015625 334.425781 350.796875 C 333.746094 350.589844 333.058594 350.378906 332.367188 350.164062 C 330.484375 349.566406 328.476562 348.910156 326.394531 348.203125 C 326.105469 348.105469 325.824219 348.007812 325.546875 347.914062 C 325.894531 347.734375 326.265625 347.5625 326.664062 347.40625 C 322.289062 345.921875 318.984375 344.699219 318.984375 344.699219 C 318.984375 344.699219 317.132812 309.40625 315.628906 275.691406 C 315.363281 275.730469 315.074219 275.757812 314.796875 275.789062 C 314.792969 275.769531 314.792969 275.75 314.792969 275.730469 L 314.757812 274.976562 L 315.503906 274.863281 C 320.496094 274.101562 323.070312 271.921875 323.179688 271.832031 L 323.972656 271.148438 L 324.464844 272.070312 C 324.96875 273.007812 326.628906 275.445312 328.25 275.445312 C 328.367188 275.445312 328.484375 275.429688 328.597656 275.40625 C 329.910156 275.109375 330.863281 273.992188 330.863281 272.75 C 330.867188 270.636719 328.398438 268.8125 324.257812 267.867188 L 322.496094 267.464844 L 323.941406 266.378906 C 325.699219 265.058594 326.726562 263.351562 326.992188 261.308594 L 327.066406 260.746094 L 327.609375 260.605469 C 334 258.917969 338.078125 257.613281 339.632812 257.097656 L 317.464844 165.863281 L 318.230469 165.46875 L 318.277344 165.664062 C 323.390625 171.648438 328.457031 177.167969 332.140625 180.246094 C 328.917969 183.765625 335.355469 193.808594 335.355469 193.808594 C 326.402344 193.808594 331.183594 205.355469 339.488281 205.355469 C 345.46875 205.355469 351.441406 205.355469 355.371094 205.355469 C 359.300781 205.355469 360.496094 196.488281 360.496094 196.488281 C 360.496094 196.488281 362.007812 193.957031 362.035156 190.628906 C 362.066406 186.4375 355.960938 176.734375 353.265625 174.152344 Z M 209.972656 226.144531 L 208.859375 225.210938 C 202.34375 219.742188 199.25 212.796875 199.398438 203.976562 C 199.625 190.742188 206.128906 179.945312 217.710938 173.578125 L 219.234375 172.738281 Z M 336.875 194.632812 L 336.890625 194.652344 L 336.855469 194.652344 C 336.863281 194.644531 336.871094 194.636719 336.875 194.632812 Z M 277.070312 320.226562 L 276.847656 319.8125 L 277.078125 319.40625 C 277.167969 319.257812 277.246094 319.105469 277.335938 318.949219 C 277.488281 319.234375 277.644531 319.527344 277.804688 319.824219 C 279.886719 316.203125 281.953125 312.246094 283.847656 308.035156 C 284.425781 316.734375 284.988281 325.8125 285.488281 334.125 C 285.519531 334.175781 285.546875 334.230469 285.574219 334.285156 L 284.75 334.519531 C 281.933594 329.253906 279.171875 324.125 277.070312 320.226562 Z M 359.527344 197.210938 C 359.5625 197.027344 359.59375 196.859375 359.617188 196.703125 L 359.824219 196.898438 Z M 359.527344 197.210938 " fill-opacity="1" fill-rule="nonzero"/></g><g clip-path="url(#491419919f)"><path fill="#f7f0e8" d="M 248.953125 38.535156 L 241.414062 28.1875 C 247 13.363281 264.3125 12.523438 264.3125 12.523438 C 264.03125 29.863281 248.953125 38.535156 248.953125 38.535156 Z M 229.40625 52.796875 L 217.117188 60.90625 L 241.414062 75.730469 Z M 266.355469 143.453125 C 266.097656 143.550781 265.816406 143.65625 265.515625 143.769531 L 265.515625 145.847656 C 265.796875 145.652344 266.078125 145.457031 266.355469 145.261719 Z M 238.785156 153.085938 C 238.488281 153.183594 238.191406 153.28125 237.894531 153.378906 L 236.777344 161.097656 C 237.078125 160.980469 237.375 160.863281 237.675781 160.75 Z M 327.894531 260.5 C 327.894531 260.5 327.898438 260.5 327.898438 260.5 C 327.894531 260.511719 327.894531 260.523438 327.894531 260.535156 C 327.882812 260.820312 327.863281 261.097656 327.828125 261.367188 C 327.828125 261.382812 327.828125 261.402344 327.824219 261.417969 C 327.824219 261.425781 327.820312 261.433594 327.820312 261.441406 C 327.742188 262.019531 327.613281 262.5625 327.4375 263.074219 C 327.421875 263.113281 327.410156 263.148438 327.394531 263.1875 C 327.3125 263.421875 327.21875 263.648438 327.113281 263.871094 C 327.105469 263.886719 327.097656 263.902344 327.09375 263.914062 C 326.859375 264.398438 326.578125 264.847656 326.257812 265.269531 C 326.242188 265.296875 326.222656 265.320312 326.203125 265.34375 C 326.046875 265.542969 325.882812 265.738281 325.710938 265.925781 C 325.707031 265.929688 325.703125 265.933594 325.699219 265.9375 C 325.328125 266.332031 324.917969 266.699219 324.46875 267.035156 C 324.460938 267.042969 324.457031 267.046875 324.449219 267.054688 C 324.441406 267.058594 324.4375 267.0625 324.433594 267.0625 C 323.601562 267.6875 322.652344 268.214844 321.609375 268.652344 C 321.601562 268.652344 321.59375 268.65625 321.585938 268.660156 C 321.066406 268.878906 320.527344 269.074219 319.964844 269.25 C 319.960938 269.253906 319.957031 269.253906 319.953125 269.253906 C 319.390625 269.429688 318.8125 269.585938 318.21875 269.722656 C 318.203125 269.726562 318.1875 269.726562 318.171875 269.730469 C 317.597656 269.863281 317.011719 269.972656 316.414062 270.070312 C 316.375 270.074219 316.339844 270.082031 316.304688 270.085938 C 315.699219 270.183594 315.085938 270.261719 314.460938 270.324219 C 314.4375 270.324219 314.414062 270.328125 314.390625 270.328125 C 313.792969 270.386719 313.183594 270.429688 312.574219 270.460938 C 312.511719 270.460938 312.449219 270.464844 312.386719 270.46875 C 311.769531 270.496094 311.152344 270.511719 310.535156 270.511719 C 310.523438 270.511719 310.515625 270.511719 310.503906 270.511719 L 318.8125 271.742188 L 323.730469 272.46875 C 323.730469 272.472656 323.664062 272.527344 323.550781 272.613281 C 323.542969 272.617188 323.539062 272.621094 323.535156 272.625 C 323.488281 272.664062 323.433594 272.703125 323.371094 272.75 C 323.335938 272.773438 323.296875 272.800781 323.257812 272.828125 C 323.21875 272.855469 323.175781 272.882812 323.132812 272.914062 C 323.070312 272.960938 323.003906 273.003906 322.925781 273.054688 C 322.917969 273.058594 322.914062 273.0625 322.90625 273.066406 C 321.84375 273.765625 319.742188 274.894531 316.644531 275.515625 C 316.617188 275.523438 316.585938 275.527344 316.558594 275.53125 C 316.265625 275.589844 315.964844 275.644531 315.652344 275.691406 C 315.648438 275.691406 315.640625 275.695312 315.632812 275.695312 C 315.625 275.695312 315.617188 275.695312 315.609375 275.699219 C 315.132812 275.769531 314.632812 275.828125 314.117188 275.871094 C 314.015625 275.878906 313.917969 275.890625 313.8125 275.898438 C 313.269531 275.9375 312.710938 275.960938 312.125 275.964844 C 312.109375 275.964844 312.097656 275.964844 312.082031 275.964844 C 304.402344 275.964844 296.289062 275.886719 296.289062 275.886719 L 285.296875 294.160156 L 280.015625 302.941406 L 274.046875 312.863281 C 274.046875 312.863281 275.546875 315.636719 277.804688 319.824219 C 279.910156 323.726562 282.671875 328.855469 285.488281 334.121094 C 289.871094 342.304688 294.386719 350.816406 296.785156 355.539062 C 297.679688 357.300781 298.28125 358.542969 298.46875 359.035156 C 298.472656 359.035156 298.472656 359.035156 298.476562 359.035156 C 298.886719 358.929688 299.277344 358.847656 299.664062 358.785156 C 299.789062 358.761719 299.910156 358.75 300.03125 358.730469 C 300.296875 358.695312 300.558594 358.664062 300.8125 358.644531 C 300.941406 358.636719 301.066406 358.628906 301.191406 358.621094 C 301.449219 358.613281 301.699219 358.613281 301.941406 358.621094 C 302.042969 358.625 302.148438 358.621094 302.246094 358.628906 C 302.578125 358.648438 302.898438 358.683594 303.210938 358.734375 C 303.28125 358.746094 303.34375 358.761719 303.410156 358.773438 C 303.65625 358.820312 303.894531 358.871094 304.128906 358.9375 C 304.234375 358.964844 304.335938 359 304.441406 359.03125 C 304.632812 359.089844 304.816406 359.15625 305 359.226562 C 305.097656 359.265625 305.199219 359.304688 305.296875 359.347656 C 305.492188 359.429688 305.683594 359.523438 305.867188 359.621094 C 305.9375 359.65625 306.007812 359.6875 306.078125 359.726562 C 306.320312 359.859375 306.554688 360.007812 306.785156 360.160156 C 306.851562 360.207031 306.914062 360.257812 306.980469 360.304688 C 307.144531 360.421875 307.300781 360.539062 307.457031 360.664062 C 307.53125 360.726562 307.609375 360.792969 307.683594 360.859375 C 307.824219 360.980469 307.960938 361.105469 308.09375 361.230469 C 308.160156 361.292969 308.226562 361.359375 308.289062 361.421875 C 308.453125 361.589844 308.613281 361.757812 308.765625 361.929688 C 308.789062 361.957031 308.8125 361.984375 308.835938 362.011719 C 309.011719 362.214844 309.179688 362.425781 309.339844 362.636719 C 309.382812 362.691406 309.421875 362.75 309.460938 362.804688 C 309.582031 362.96875 309.695312 363.128906 309.804688 363.292969 C 309.847656 363.359375 309.890625 363.421875 309.929688 363.488281 C 310.039062 363.65625 310.148438 363.828125 310.25 364 C 310.277344 364.046875 310.304688 364.09375 310.332031 364.140625 C 310.59375 364.59375 310.824219 365.042969 311.023438 365.480469 C 311.03125 365.488281 311.035156 365.5 311.039062 365.507812 C 311.046875 365.523438 311.050781 365.539062 311.058594 365.558594 C 311.171875 365.796875 311.273438 366.03125 311.367188 366.257812 C 311.371094 366.273438 311.378906 366.285156 311.382812 366.296875 C 311.484375 366.542969 311.574219 366.78125 311.65625 367.011719 C 311.660156 367.011719 311.660156 367.015625 311.660156 367.019531 C 311.742188 367.238281 311.8125 367.449219 311.875 367.644531 C 311.882812 367.664062 311.886719 367.679688 311.894531 367.695312 C 311.957031 367.894531 312.015625 368.082031 312.0625 368.253906 C 312.066406 368.257812 312.066406 368.261719 312.070312 368.269531 C 312.113281 368.421875 312.148438 368.558594 312.183594 368.6875 C 312.191406 368.722656 312.199219 368.753906 312.210938 368.789062 C 312.234375 368.878906 312.253906 368.960938 312.269531 369.03125 C 312.328125 369.269531 312.355469 369.414062 312.355469 369.414062 L 306.296875 369.417969 L 305.792969 369.417969 L 283.230469 369.421875 C 283.230469 369.421875 262.933594 345.625 249.363281 327.519531 C 249.308594 327.445312 249.253906 327.371094 249.195312 327.292969 C 248.503906 326.371094 247.824219 325.457031 247.175781 324.570312 C 234.703125 324.570312 153.042969 324.570312 153.003906 324.570312 C 152.945312 324.632812 152.886719 324.6875 152.832031 324.75 C 152.546875 325.058594 152.261719 325.359375 151.972656 325.648438 C 151.84375 325.78125 151.714844 325.90625 151.585938 326.035156 C 151.363281 326.257812 151.140625 326.472656 150.917969 326.683594 C 150.785156 326.8125 150.652344 326.9375 150.515625 327.058594 C 150.292969 327.265625 150.070312 327.46875 149.847656 327.667969 C 149.722656 327.777344 149.597656 327.886719 149.476562 327.992188 C 149.226562 328.207031 148.976562 328.417969 148.726562 328.625 C 148.632812 328.699219 148.542969 328.777344 148.449219 328.851562 C 148.109375 329.125 147.769531 329.394531 147.429688 329.648438 C 146.328125 330.480469 145.246094 331.203125 144.195312 331.84375 C 144.191406 331.84375 144.191406 331.84375 144.1875 331.847656 C 144.183594 331.847656 144.183594 331.847656 144.179688 331.851562 C 137.457031 335.921875 132.039062 336.304688 132.027344 336.304688 C 132.03125 336.3125 136.796875 358.128906 137.546875 360.109375 C 149.484375 357 149.375 369.207031 149.375 369.207031 L 149.375 369.210938 C 149.375 369.210938 124.585938 369.675781 121.796875 369.210938 C 121.796875 367.648438 110.269531 333.390625 110.269531 333.390625 C 110.269531 333.390625 110.269531 299.203125 110.269531 290.183594 C 99.421875 289.410156 92.144531 287.378906 86.300781 283.421875 C 85.785156 283.070312 85.273438 282.707031 84.777344 282.328125 C 84.757812 282.3125 84.742188 282.300781 84.722656 282.289062 C 80.539062 279.0625 77.046875 274.730469 73.355469 269 C 63.59375 253.859375 78.972656 237.921875 62.113281 227.59375 C 60.371094 226.523438 58.28125 225.515625 55.78125 224.574219 C 43.292969 219.867188 36.660156 213.824219 33.136719 208.730469 C 29.140625 202.957031 29.140625 198.40625 29.140625 198.40625 C 29.417969 198.40625 29.722656 198.40625 30.050781 198.402344 C 31.457031 198.378906 33.328125 198.320312 35.542969 198.269531 C 35.800781 198.261719 36.066406 198.253906 36.335938 198.25 C 36.523438 198.246094 36.710938 198.242188 36.90625 198.238281 C 37.890625 198.214844 38.933594 198.199219 40.027344 198.183594 C 40.125 198.183594 40.21875 198.183594 40.316406 198.183594 C 40.875 198.175781 41.445312 198.171875 42.027344 198.167969 C 42.039062 198.167969 42.046875 198.167969 42.058594 198.167969 C 42.691406 198.167969 43.335938 198.167969 43.996094 198.167969 C 44.019531 198.167969 44.042969 198.167969 44.070312 198.167969 C 44.714844 198.171875 45.371094 198.175781 46.035156 198.1875 C 46.054688 198.1875 46.070312 198.1875 46.089844 198.1875 C 47.46875 198.207031 48.894531 198.238281 50.359375 198.289062 C 50.371094 198.289062 50.382812 198.289062 50.394531 198.289062 C 73.910156 199.101562 106.773438 204.625 106.773438 233.089844 C 106.773438 256.714844 111.1875 265.144531 117.128906 267.929688 C 123.601562 259.085938 134.042969 253.339844 145.832031 253.339844 C 152.46875 253.339844 181.167969 253.339844 204.40625 253.339844 L 214.976562 253.339844 L 225.542969 238.691406 C 225.8125 238.792969 226.078125 238.894531 226.34375 238.992188 L 227.082031 233.894531 C 226.816406 233.792969 226.550781 233.691406 226.28125 233.589844 L 222.675781 230.210938 L 231.816406 170.539062 L 235.953125 166.800781 C 236.25 166.6875 236.546875 166.574219 236.847656 166.460938 L 265.515625 151.929688 C 265.792969 151.742188 266.074219 151.554688 266.355469 151.367188 C 266.355469 151.367188 285.445312 137.707031 286.6875 135.839844 C 288.257812 133.480469 286.636719 119.953125 284.332031 114.027344 C 283.71875 112.457031 283.207031 111.371094 282.78125 110.609375 L 280.171875 110.609375 C 279.96875 110.523438 279.761719 110.453125 279.546875 110.398438 C 279.011719 110.320312 277.925781 110.421875 276.632812 110.609375 L 272.058594 110.609375 C 271.222656 110.414062 270.386719 110.273438 269.558594 110.1875 L 269.5 110.609375 L 269.472656 110.609375 C 269.53125 110.328125 269.589844 110.046875 269.644531 109.769531 C 269.644531 109.769531 274.128906 102.300781 269.5 99.5 C 267.523438 100.621094 268.640625 100.898438 261.796875 106.773438 C 261.160156 107.320312 260.832031 109.769531 260.832031 109.769531 L 260.179688 110.609375 C 260.179688 110.609375 254.957031 116.003906 254.257812 122.15625 L 242.847656 125.035156 L 241.988281 125.121094 L 231.816406 125.035156 L 233.59375 105.375 L 259.566406 93.488281 L 300.476562 102.578125 L 314.5625 252.207031 L 325.066406 252.207031 C 325.066406 252.207031 327.90625 252.433594 327.90625 260.164062 C 327.90625 260.277344 327.898438 260.386719 327.894531 260.5 Z M 235.324219 253.3125 C 235.523438 253.300781 235.722656 253.285156 235.933594 253.257812 C 235.726562 253.285156 235.523438 253.300781 235.324219 253.3125 Z M 239.367188 252.367188 C 239.332031 252.378906 239.300781 252.390625 239.265625 252.402344 C 239.300781 252.390625 239.332031 252.378906 239.367188 252.367188 Z M 239.367188 252.367188 " fill-opacity="1" fill-rule="nonzero"/></g><g clip-path="url(#9e858a4ee0)"><path fill="#cc936b" d="M 233.277344 162.4375 C 228.644531 164.199219 223.863281 166.027344 219.335938 168.082031 C 219.285156 168.105469 219.234375 168.132812 219.179688 168.15625 L 221.023438 157.53125 C 224.882812 157.53125 230.542969 155.808594 237.894531 153.378906 L 236.777344 161.097656 C 235.609375 161.546875 234.441406 161.992188 233.277344 162.4375 Z M 208.417969 230.214844 L 204.40625 253.339844 C 211.523438 253.339844 218.121094 253.339844 223.421875 253.339844 L 225.542969 238.691406 C 219.898438 236.558594 213.71875 233.996094 208.417969 230.214844 Z M 236.699219 253.144531 C 236.722656 253.136719 236.746094 253.128906 236.773438 253.125 C 237.074219 253.066406 237.378906 252.996094 237.695312 252.910156 C 237.804688 252.878906 237.921875 252.839844 238.035156 252.808594 C 238.265625 252.738281 238.5 252.671875 238.738281 252.59375 C 238.910156 252.535156 239.089844 252.46875 239.265625 252.402344 C 239.300781 252.390625 239.332031 252.378906 239.367188 252.367188 L 237.789062 250.402344 L 239.296875 249.183594 C 237.273438 246.207031 233.390625 241.621094 228.261719 239.710938 C 227.632812 239.476562 226.992188 239.234375 226.34375 238.992188 L 224.269531 253.339844 C 229.355469 253.339844 233.136719 253.339844 234.847656 253.339844 C 235.425781 253.339844 236.042969 253.269531 236.699219 253.144531 Z M 209.398438 224.566406 C 214.242188 228.632812 220.386719 231.328125 226.28125 233.589844 L 235.953125 166.804688 C 235.65625 166.917969 235.359375 167.03125 235.0625 167.144531 C 230.507812 168.878906 225.796875 170.675781 221.382812 172.679688 C 220.246094 173.179688 219.164062 173.734375 218.113281 174.3125 Z M 263.671875 153.15625 C 255.453125 159.183594 246.046875 162.941406 236.847656 166.460938 L 227.082031 233.894531 C 228.070312 234.269531 229.050781 234.636719 230.011719 234.992188 C 236.363281 237.363281 240.601562 242.070312 243.246094 246 L 245.273438 244.367188 L 248.089844 247.871094 C 248.4375 247.652344 248.785156 247.433594 249.132812 247.210938 C 249.273438 247.121094 249.414062 247.03125 249.554688 246.9375 C 250.058594 246.609375 250.566406 246.273438 251.066406 245.933594 C 251.207031 245.839844 251.34375 245.746094 251.484375 245.652344 C 251.871094 245.386719 252.253906 245.125 252.636719 244.855469 C 252.808594 244.738281 252.976562 244.617188 253.148438 244.496094 C 253.542969 244.21875 253.9375 243.9375 254.328125 243.65625 C 254.441406 243.574219 254.554688 243.496094 254.667969 243.414062 C 255.144531 243.066406 255.617188 242.71875 256.082031 242.371094 C 256.253906 242.246094 256.421875 242.117188 256.59375 241.992188 C 256.910156 241.753906 257.226562 241.515625 257.535156 241.28125 C 257.710938 241.148438 257.886719 241.015625 258.058594 240.882812 C 258.441406 240.589844 258.820312 240.300781 259.191406 240.011719 C 259.359375 239.878906 259.523438 239.75 259.691406 239.621094 C 260 239.378906 260.304688 239.140625 260.601562 238.90625 C 260.785156 238.757812 260.96875 238.613281 261.148438 238.46875 C 261.375 238.289062 261.597656 238.109375 261.820312 237.933594 C 261.996094 237.789062 262.171875 237.648438 262.34375 237.511719 C 262.605469 237.300781 262.855469 237.09375 263.101562 236.890625 C 263.371094 236.671875 263.632812 236.457031 263.882812 236.25 C 264.007812 236.148438 264.132812 236.046875 264.25 235.949219 C 264.449219 235.78125 264.644531 235.621094 264.828125 235.464844 C 264.902344 235.402344 264.972656 235.34375 265.046875 235.285156 C 265.207031 235.148438 265.367188 235.015625 265.515625 234.890625 L 265.515625 151.929688 C 265.171875 152.15625 264.832031 152.386719 264.492188 152.609375 Z M 266.355469 143.453125 L 266.355469 145.265625 C 268.015625 144.097656 269.589844 142.917969 271.027344 141.683594 C 270.160156 142.003906 269.238281 142.351562 268.238281 142.734375 C 268.238281 142.730469 267.53125 143.003906 266.355469 143.453125 Z M 238.785156 153.085938 L 237.675781 160.746094 C 245.726562 157.621094 253.800781 154.164062 260.75 149.0625 L 260.84375 148.996094 L 261.707031 148.414062 C 263.007812 147.550781 264.28125 146.699219 265.515625 145.847656 L 265.515625 143.769531 C 261.484375 145.292969 253.785156 148.160156 248.160156 149.984375 C 244.785156 151.078125 241.664062 152.128906 238.785156 153.085938 Z M 269.476562 110.609375 C 269.375 111.085938 269.269531 111.566406 269.167969 112.046875 C 269.210938 112.035156 269.257812 112.027344 269.300781 112.015625 L 269.5 110.609375 Z M 272.058594 110.609375 C 272.628906 110.742188 273.195312 110.910156 273.757812 111.09375 C 274.75 110.910156 275.738281 110.738281 276.636719 110.609375 Z M 260.179688 110.609375 L 244.9375 110.609375 L 242.847656 125.035156 L 256.421875 123.667969 C 256.421875 117.4375 257.8125 113.792969 260.179688 110.609375 Z M 327.898438 260.5 C 327.886719 260.8125 327.863281 261.121094 327.824219 261.417969 C 336.269531 259.191406 340.632812 257.648438 340.632812 257.648438 L 318.28125 165.667969 L 297.015625 78.160156 L 296.488281 75.988281 L 318.300781 79.355469 L 316.761719 73.300781 L 315.371094 67.820312 L 311.285156 67.964844 L 299.707031 68.371094 L 305.617188 64.769531 L 311.179688 61.382812 L 303.71875 57.558594 L 299.03125 55.152344 L 286.933594 68.820312 L 286.875 71.761719 L 286.5 89.953125 L 245.316406 89.894531 L 244.863281 67.976562 L 243.96875 66.964844 L 232.765625 54.3125 L 220.617188 60.542969 L 220.621094 60.542969 L 228.539062 56.480469 L 238.773438 71.667969 L 232.019531 67.527344 L 216.429688 66.980469 L 213.496094 78.519531 L 222.65625 77.101562 L 235.308594 75.148438 L 226.371094 126.691406 L 241.988281 125.121094 L 244.089844 110.609375 L 234.105469 110.609375 L 234.105469 109.769531 L 260.832031 109.769531 C 262.800781 107.351562 265.332031 105.09375 268.238281 102.011719 C 270.597656 103.257812 270.3125 106.394531 269.644531 109.769531 L 298.054688 109.769531 L 298.054688 110.609375 L 287.78125 110.609375 L 309.21875 252.207031 L 319.589844 252.207031 C 319.9375 251.785156 320.460938 251.507812 321.101562 251.519531 L 326.441406 251.636719 C 327.480469 251.660156 328.3125 252.507812 328.3125 253.546875 L 328.3125 259.304688 C 328.3125 259.78125 328.152344 260.183594 327.898438 260.5 Z M 280.171875 110.609375 C 286.316406 113.179688 288.324219 130.554688 285.179688 134.917969 C 283.914062 136.675781 283.027344 137.324219 280.617188 138.253906 C 277.191406 143.765625 271.710938 147.765625 266.355469 151.367188 L 266.355469 234.183594 C 266.847656 233.761719 267.246094 233.417969 267.511719 233.191406 C 267.511719 232.964844 267.511719 232.738281 267.511719 232.523438 C 267.511719 218.417969 284.335938 209.984375 284.335938 209.984375 L 284.335938 227.410156 C 284.75 227.429688 285.160156 227.464844 285.570312 227.507812 C 285.640625 227.515625 285.714844 227.527344 285.785156 227.535156 C 286.113281 227.574219 286.441406 227.613281 286.769531 227.664062 C 286.886719 227.683594 287.007812 227.707031 287.125 227.726562 C 287.402344 227.777344 287.675781 227.824219 287.949219 227.878906 C 288.085938 227.910156 288.21875 227.941406 288.355469 227.972656 C 288.609375 228.03125 288.859375 228.089844 289.109375 228.152344 C 289.253906 228.191406 289.394531 228.234375 289.535156 228.273438 C 289.773438 228.339844 290.011719 228.410156 290.25 228.484375 C 290.394531 228.527344 290.535156 228.578125 290.679688 228.628906 C 290.910156 228.707031 291.140625 228.785156 291.367188 228.867188 C 291.507812 228.921875 291.652344 228.980469 291.792969 229.035156 C 292.015625 229.125 292.238281 229.210938 292.457031 229.308594 C 292.597656 229.367188 292.738281 229.429688 292.878906 229.496094 C 293.09375 229.59375 293.308594 229.695312 293.523438 229.796875 C 293.660156 229.863281 293.796875 229.933594 293.933594 230.003906 C 294.144531 230.113281 294.355469 230.226562 294.566406 230.339844 C 294.695312 230.414062 294.828125 230.488281 294.957031 230.5625 C 295.164062 230.683594 295.371094 230.808594 295.578125 230.933594 C 295.703125 231.011719 295.828125 231.085938 295.949219 231.167969 C 296.15625 231.300781 296.359375 231.4375 296.5625 231.578125 C 296.679688 231.65625 296.792969 231.738281 296.910156 231.820312 C 297.117188 231.96875 297.320312 232.121094 297.519531 232.273438 C 297.625 232.355469 297.730469 232.433594 297.835938 232.515625 C 298.042969 232.679688 298.246094 232.851562 298.449219 233.019531 C 298.542969 233.097656 298.636719 233.175781 298.726562 233.253906 C 298.941406 233.441406 299.152344 233.636719 299.359375 233.828125 C 299.433594 233.898438 299.507812 233.964844 299.582031 234.035156 C 299.820312 234.261719 300.050781 234.496094 300.28125 234.734375 C 300.320312 234.777344 300.359375 234.816406 300.398438 234.855469 C 304.527344 239.214844 307.0625 245.121094 307.0625 251.632812 C 307.0625 251.824219 307.050781 252.015625 307.046875 252.207031 L 308.371094 252.207031 L 286.933594 110.609375 Z M 260.496094 365.507812 C 259.265625 362.902344 256.203125 359.953125 248.640625 359.953125 L 251.746094 350.339844 L 256.234375 336.464844 C 253.015625 332.359375 249.90625 328.296875 247.175781 324.574219 C 245.304688 324.574219 241.871094 324.574219 237.398438 324.574219 C 236.492188 331.242188 235.246094 340.625 234.277344 348.734375 C 233.886719 352.011719 233.539062 355.078125 233.277344 357.671875 C 233.242188 358.03125 233.214844 358.386719 233.191406 358.738281 C 232.78125 364.855469 234.414062 369.417969 242.699219 369.417969 C 251.464844 369.417969 261.296875 369.414062 261.296875 369.414062 C 261.296875 369.414062 261.464844 367.570312 260.492188 365.511719 C 260.496094 365.507812 260.496094 365.507812 260.496094 365.507812 Z M 179.480469 360.109375 C 178.734375 358.132812 166.082031 336.304688 166.082031 336.304688 L 179.257812 324.570312 C 164.363281 324.570312 153.003906 324.570312 153.003906 324.570312 C 150.035156 327.804688 146.996094 330.148438 144.1875 331.847656 L 144.320312 333.394531 C 144.320312 333.394531 163.730469 367.652344 163.730469 369.210938 C 166.519531 369.679688 191.308594 369.210938 191.308594 369.210938 C 191.308594 369.210938 191.417969 357.003906 179.480469 360.109375 Z M 179.480469 360.109375 " fill-opacity="1" fill-rule="nonzero"/></g><path fill="#cc6d6a" d="M 328.789062 276.226562 C 326.066406 276.84375 323.734375 272.480469 323.730469 272.472656 L 323.730469 272.46875 L 310.5 270.511719 C 315.785156 270.511719 321.105469 269.570312 324.449219 267.054688 C 334.128906 269.265625 332.53125 275.378906 328.789062 276.226562 Z M 270.726562 276.035156 L 248.089844 247.871094 L 245.273438 244.367188 L 243.246094 246 C 240.601562 242.070312 236.363281 237.363281 230.011719 234.992188 C 229.050781 234.636719 228.070312 234.269531 227.082031 233.894531 C 226.816406 233.796875 226.550781 233.695312 226.28125 233.589844 C 220.386719 231.328125 214.242188 228.632812 209.394531 224.566406 C 203.894531 219.949219 200.074219 213.558594 200.234375 203.992188 C 200.457031 191.09375 206.917969 180.46875 218.113281 174.3125 C 219.164062 173.734375 220.246094 173.179688 221.382812 172.679688 C 225.796875 170.675781 230.503906 168.878906 235.0625 167.144531 C 235.359375 167.03125 235.65625 166.917969 235.953125 166.804688 C 236.25 166.691406 236.546875 166.578125 236.847656 166.460938 C 246.046875 162.941406 255.449219 159.183594 263.671875 153.15625 L 264.492188 152.613281 C 264.832031 152.386719 265.171875 152.160156 265.515625 151.929688 C 265.792969 151.742188 266.074219 151.558594 266.351562 151.367188 C 271.710938 147.765625 277.191406 143.769531 280.617188 138.253906 C 283.074219 134.296875 284.476562 129.5625 284.007812 123.625 C 283.453125 116.679688 278.851562 112.78125 273.757812 111.097656 C 273.195312 110.910156 272.628906 110.742188 272.058594 110.609375 C 271.222656 110.414062 270.386719 110.277344 269.5625 110.191406 L 269.5 110.609375 L 269.300781 112.015625 L 268.730469 116.027344 C 274.566406 116.621094 278.601562 119.0625 278.996094 124.027344 C 279.632812 132.042969 276.21875 137.222656 271.027344 141.683594 C 269.589844 142.917969 268.015625 144.097656 266.351562 145.265625 C 266.078125 145.460938 265.796875 145.65625 265.515625 145.847656 C 264.28125 146.703125 263.003906 147.550781 261.703125 148.417969 L 260.839844 148.996094 L 260.75 149.0625 C 253.796875 154.167969 245.726562 157.621094 237.675781 160.75 C 237.375 160.867188 237.078125 160.984375 236.777344 161.097656 C 235.609375 161.550781 234.441406 161.996094 233.277344 162.4375 C 228.644531 164.199219 223.863281 166.027344 219.335938 168.085938 C 219.285156 168.109375 219.230469 168.132812 219.179688 168.15625 C 204.214844 174.773438 195.484375 187.800781 195.207031 203.910156 C 194.992188 216.816406 200.796875 224.78125 208.417969 230.214844 C 213.71875 234 219.898438 236.558594 225.542969 238.695312 C 225.8125 238.796875 226.078125 238.894531 226.34375 238.996094 C 226.988281 239.238281 227.632812 239.476562 228.257812 239.710938 C 233.390625 241.621094 237.273438 246.207031 239.296875 249.1875 L 237.785156 250.402344 L 239.367188 252.367188 L 264.203125 283.273438 L 280.011719 302.945312 L 281.75 305.105469 L 289.238281 299.066406 L 285.296875 294.164062 Z M 270.726562 276.035156 " fill-opacity="1" fill-rule="nonzero"/><g clip-path="url(#d70a691f0a)"><path fill="#3d3d3d" d="M 201.726562 114.195312 C 204.714844 100.332031 211.210938 86.464844 222.660156 77.101562 L 213.5 78.519531 L 216.429688 66.980469 L 232.019531 67.527344 L 220.621094 60.542969 L 232.769531 54.3125 L 243.96875 66.964844 C 247.488281 66.199219 251.25 65.726562 255.277344 65.601562 L 255.246094 65.5625 L 255.246094 57.535156 C 254.039062 56.804688 252.90625 55.960938 251.867188 55.015625 C 251.867188 50.820312 251.867188 44.890625 251.867188 41.390625 C 251.867188 35.746094 267.101562 31.820312 268.175781 17.734375 C 278.910156 18.796875 287.296875 27.949219 287.296875 39.085938 C 287.296875 50.9375 277.796875 60.542969 266.082031 60.542969 C 265.617188 60.542969 265.160156 60.523438 264.707031 60.496094 L 264.707031 65.878906 C 273.242188 66.613281 280.550781 68.671875 286.875 71.761719 L 286.933594 68.820312 L 299.03125 55.152344 L 303.71875 57.558594 C 301.960938 50.980469 297.867188 45.375 292.386719 41.710938 C 292.449219 40.894531 292.492188 40.066406 292.492188 39.234375 C 292.492188 22.078125 278.742188 8.171875 261.78125 8.171875 C 245.152344 8.171875 231.621094 21.535156 231.09375 38.222656 C 220.21875 41.386719 212.125 51.1875 211.386719 63.011719 C 198.257812 65.035156 188.199219 76.5 188.199219 90.339844 C 188.199219 100.511719 193.636719 109.394531 201.726562 114.195312 Z M 251.171875 31.804688 C 255.648438 28.113281 261.222656 23.523438 261.222656 14.925781 L 262.058594 14.925781 C 262.058594 23.917969 256.074219 28.851562 251.703125 32.453125 C 251.289062 32.792969 250.886719 33.125 250.503906 33.449219 L 249.964844 32.808594 C 250.351562 32.480469 250.753906 32.148438 251.171875 31.804688 Z M 243.019531 38.378906 L 244.574219 38.378906 L 244.574219 49.261719 L 243.019531 49.261719 C 239.867188 49.261719 237.308594 46.824219 237.308594 43.820312 C 237.308594 40.816406 239.867188 38.378906 243.019531 38.378906 Z M 318.300781 79.355469 L 316.761719 73.300781 C 320.40625 77.996094 322.59375 83.90625 322.59375 90.339844 C 322.59375 95.941406 320.941406 101.15625 318.105469 105.511719 C 312.644531 94.949219 306.046875 85.316406 297.015625 78.160156 L 296.488281 75.988281 Z M 299.707031 68.371094 L 305.617188 64.773438 C 307.636719 65.609375 309.539062 66.683594 311.28125 67.964844 Z M 228.269531 340.976562 C 229.753906 343.816406 231.933594 346.4375 234.277344 348.734375 C 233.886719 352.011719 233.539062 355.078125 233.277344 357.671875 C 233.242188 358.03125 233.214844 358.386719 233.191406 358.734375 C 227.355469 354.582031 222.980469 350.054688 222.976562 350.050781 C 222.976562 350.050781 225.132812 346.480469 228.269531 340.976562 C 228.265625 340.976562 228.265625 340.976562 228.269531 340.976562 Z M 264.023438 346.242188 C 270.402344 354.136719 276.378906 361.296875 279.921875 365.507812 C 275.082031 365.507812 267.503906 365.507812 260.496094 365.507812 C 259.265625 362.902344 256.203125 359.953125 248.640625 359.953125 L 251.746094 350.339844 C 254.308594 348.386719 258.175781 346.703125 264.023438 346.242188 Z M 349.292969 365.507812 C 349.257812 365.507812 325.253906 365.507812 313.738281 365.507812 C 312.855469 365.507812 311.953125 365.507812 311.039062 365.507812 C 309.339844 361.832031 305.699219 357.15625 298.46875 359.039062 C 298.28125 358.542969 297.679688 357.304688 296.785156 355.542969 L 320.527344 355.390625 C 320.527344 355.390625 320.316406 349.9375 326.667969 347.410156 C 328.519531 348.039062 330.5625 348.714844 332.625 349.367188 C 332.628906 349.367188 332.632812 349.367188 332.632812 349.367188 C 333.3125 349.582031 333.996094 349.792969 334.675781 350 C 334.6875 350.003906 334.703125 350.007812 334.71875 350.011719 C 335.382812 350.214844 336.042969 350.410156 336.695312 350.597656 C 336.722656 350.609375 336.746094 350.613281 336.773438 350.621094 C 337.421875 350.808594 338.054688 350.988281 338.679688 351.15625 C 338.703125 351.164062 338.726562 351.171875 338.75 351.175781 C 339.378906 351.347656 339.992188 351.507812 340.582031 351.65625 C 340.59375 351.660156 340.605469 351.664062 340.617188 351.664062 C 341.222656 351.816406 341.804688 351.953125 342.355469 352.074219 C 350.730469 353.90625 349.292969 365.507812 349.292969 365.507812 Z M 271.632812 47.929688 C 274.199219 47.929688 276.292969 46.324219 276.292969 44.351562 L 277.128906 44.351562 C 277.128906 46.785156 274.664062 48.765625 271.632812 48.765625 C 268.601562 48.765625 266.132812 46.785156 266.132812 44.351562 L 266.972656 44.351562 C 266.972656 46.324219 269.0625 47.929688 271.632812 47.929688 Z M 270.472656 41.910156 L 272.421875 41.84375 L 271.367188 39.15625 L 272.148438 38.851562 L 273.277344 41.734375 C 273.359375 41.941406 273.335938 42.179688 273.210938 42.367188 C 273.085938 42.554688 272.878906 42.667969 272.65625 42.675781 L 270.503906 42.75 Z M 264.777344 37.992188 C 264.777344 38.597656 264.289062 39.085938 263.6875 39.085938 C 263.082031 39.085938 262.59375 38.597656 262.59375 37.992188 C 262.59375 37.386719 263.082031 36.894531 263.6875 36.894531 C 264.289062 36.894531 264.777344 37.386719 264.777344 37.992188 Z M 279.578125 39.085938 C 278.972656 39.085938 278.484375 38.597656 278.484375 37.992188 C 278.484375 37.386719 278.972656 36.894531 279.578125 36.894531 C 280.183594 36.894531 280.671875 37.386719 280.671875 37.992188 C 280.671875 38.597656 280.183594 39.085938 279.578125 39.085938 Z M 297.300781 242.441406 C 294.640625 243.300781 292.386719 245.722656 289.21875 248.566406 C 286.054688 251.410156 282.386719 259.328125 285.066406 270.171875 C 285.066406 270.171875 279.46875 266.957031 276.179688 262.148438 C 274.058594 266.921875 272.09375 272.175781 270.726562 276.035156 L 248.089844 247.871094 C 248.4375 247.65625 248.785156 247.4375 249.128906 247.210938 C 249.273438 247.121094 249.414062 247.03125 249.554688 246.941406 C 250.058594 246.613281 250.5625 246.277344 251.066406 245.9375 C 251.207031 245.84375 251.34375 245.746094 251.484375 245.652344 C 251.867188 245.390625 252.253906 245.125 252.632812 244.859375 C 252.804688 244.738281 252.976562 244.621094 253.148438 244.5 C 253.542969 244.21875 253.9375 243.9375 254.328125 243.65625 C 254.441406 243.578125 254.554688 243.496094 254.664062 243.414062 C 255.144531 243.066406 255.617188 242.71875 256.082031 242.375 C 256.253906 242.246094 256.421875 242.121094 256.589844 241.992188 C 256.910156 241.753906 257.226562 241.519531 257.535156 241.28125 C 257.710938 241.148438 257.886719 241.015625 258.058594 240.886719 C 258.441406 240.589844 258.820312 240.300781 259.1875 240.011719 C 259.359375 239.882812 259.523438 239.753906 259.691406 239.621094 C 260 239.378906 260.304688 239.140625 260.601562 238.90625 C 260.785156 238.757812 260.964844 238.617188 261.148438 238.472656 C 261.375 238.289062 261.597656 238.109375 261.820312 237.933594 C 261.996094 237.792969 262.171875 237.652344 262.339844 237.511719 C 262.601562 237.300781 262.855469 237.097656 263.101562 236.894531 C 263.371094 236.671875 263.628906 236.460938 263.882812 236.25 C 264.007812 236.148438 264.128906 236.046875 264.25 235.949219 C 264.449219 235.78125 264.640625 235.625 264.828125 235.46875 C 264.902344 235.40625 264.972656 235.347656 265.046875 235.285156 C 266.179688 234.335938 267.042969 233.59375 267.507812 233.191406 C 267.507812 232.964844 267.507812 232.742188 267.507812 232.523438 C 267.507812 218.417969 284.335938 209.984375 284.335938 209.984375 L 284.335938 215.25 C 272.136719 221.726562 275.0625 236.09375 277.351562 243.007812 C 278.445312 240.898438 279.519531 238.777344 280.519531 236.621094 C 281.914062 233.617188 283.324219 230.421875 284.335938 227.140625 L 284.335938 227.410156 C 284.746094 227.433594 285.160156 227.464844 285.566406 227.507812 C 285.640625 227.515625 285.710938 227.527344 285.785156 227.535156 C 286.113281 227.574219 286.441406 227.613281 286.765625 227.664062 C 286.886719 227.683594 287.003906 227.707031 287.125 227.726562 C 287.398438 227.777344 287.675781 227.824219 287.945312 227.882812 C 288.082031 227.910156 288.21875 227.941406 288.355469 227.972656 C 288.605469 228.03125 288.859375 228.089844 289.109375 228.15625 C 289.25 228.191406 289.390625 228.234375 289.535156 228.273438 C 289.773438 228.339844 290.011719 228.410156 290.246094 228.484375 C 290.390625 228.53125 290.535156 228.578125 290.675781 228.628906 C 290.90625 228.707031 291.136719 228.785156 291.363281 228.871094 C 291.507812 228.921875 291.648438 228.980469 291.792969 229.035156 C 292.015625 229.125 292.234375 229.214844 292.453125 229.308594 C 292.597656 229.367188 292.738281 229.433594 292.875 229.496094 C 293.09375 229.59375 293.308594 229.695312 293.523438 229.796875 C 293.660156 229.867188 293.796875 229.933594 293.929688 230.003906 C 294.144531 230.113281 294.355469 230.226562 294.5625 230.339844 C 294.695312 230.414062 294.824219 230.488281 294.953125 230.5625 C 295.164062 230.683594 295.371094 230.808594 295.574219 230.933594 C 295.699219 231.011719 295.824219 231.089844 295.949219 231.167969 C 296.152344 231.300781 296.359375 231.4375 296.558594 231.578125 C 296.675781 231.660156 296.792969 231.738281 296.90625 231.820312 C 297.113281 231.96875 297.316406 232.121094 297.519531 232.273438 C 297.621094 232.355469 297.730469 232.433594 297.832031 232.515625 C 298.039062 232.679688 298.246094 232.851562 298.449219 233.023438 C 298.539062 233.101562 298.632812 233.175781 298.726562 233.253906 C 298.941406 233.441406 299.148438 233.636719 299.359375 233.832031 C 299.433594 233.898438 299.507812 233.964844 299.582031 234.035156 C 299.820312 234.265625 300.050781 234.5 300.277344 234.738281 C 300.316406 234.777344 300.359375 234.816406 300.398438 234.855469 C 300.667969 235.140625 300.929688 235.429688 301.183594 235.726562 C 301.1875 235.726562 301.75 241.007812 297.300781 242.441406 Z M 299.527344 250.425781 C 300.128906 250.425781 300.617188 250.914062 300.617188 251.519531 C 300.617188 252.125 300.128906 252.613281 299.527344 252.613281 C 298.921875 252.613281 298.433594 252.125 298.433594 251.519531 C 298.433594 250.914062 298.921875 250.425781 299.527344 250.425781 Z M 359.824219 196.898438 L 357.375 199.492188 L 354.226562 194.953125 C 353.648438 194.691406 349.558594 193.023438 347.792969 196.484375 C 346.832031 198.363281 348.867188 202.191406 349.734375 203.507812 L 349.03125 203.972656 C 348.894531 203.761719 345.667969 198.796875 347.046875 196.105469 C 347.332031 195.539062 347.675781 195.09375 348.046875 194.734375 C 346.722656 194.277344 343.644531 193.605469 342.171875 196.484375 C 341.214844 198.363281 343.25 202.191406 344.113281 203.507812 L 343.414062 203.972656 C 343.277344 203.761719 340.050781 198.796875 341.425781 196.105469 C 341.710938 195.546875 342.046875 195.105469 342.414062 194.75 C 341.109375 194.292969 337.980469 193.574219 336.492188 196.484375 C 335.535156 198.363281 337.570312 202.195312 338.4375 203.511719 L 337.734375 203.972656 C 337.597656 203.761719 334.371094 198.796875 335.746094 196.105469 C 337.78125 192.128906 342.339844 193.796875 343.203125 194.160156 C 345.371094 192.878906 348.125 193.847656 348.847656 194.144531 C 350.394531 193.246094 352.238281 193.480469 353.429688 193.800781 L 350.574219 189.6875 C 339.558594 189.625 339.097656 184.988281 339.082031 184.789062 L 339.5 184.757812 L 339.917969 184.722656 C 339.917969 184.726562 339.917969 184.726562 339.917969 184.730469 C 339.933594 184.84375 340.503906 188.636719 349.988281 188.839844 L 347.546875 185.316406 L 348.234375 184.839844 L 357.476562 198.164062 L 359.214844 196.320312 Z M 321.101562 251.519531 L 326.445312 251.636719 C 327.484375 251.660156 328.3125 252.507812 328.3125 253.546875 L 328.3125 259.304688 C 328.3125 259.78125 328.152344 260.183594 327.898438 260.496094 C 327.214844 261.34375 325.847656 261.535156 324.992188 260.59375 L 319.648438 254.71875 C 318.949219 253.949219 319.03125 252.890625 319.59375 252.207031 C 319.9375 251.785156 320.464844 251.507812 321.101562 251.519531 Z M 264.207031 283.273438 C 256.132812 278.253906 246.511719 273.902344 235.992188 278.847656 C 220.65625 286.054688 200.0625 285.300781 195.625 282.050781 C 187.785156 276.308594 178.761719 269.59375 168.464844 271.265625 C 159.148438 272.78125 152.171875 281.445312 146.929688 288.636719 C 142.042969 295.34375 132.375 305.105469 110.269531 305.105469 C 110.269531 298.820312 110.269531 293.144531 110.269531 290.183594 C 110.269531 289.699219 110.269531 289.285156 110.269531 288.957031 C 110.269531 286.703125 110.488281 284.5 110.886719 282.363281 C 98.703125 279.546875 88.40625 271.527344 86.5625 253.171875 C 84.125 228.902344 102.074219 234.019531 93.460938 208.625 C 93.46875 208.628906 93.472656 208.632812 93.480469 208.636719 C 95.449219 209.933594 97.261719 211.382812 98.875 213.011719 C 98.898438 213.035156 98.917969 213.058594 98.941406 213.082031 C 99.304688 213.449219 99.652344 213.824219 99.988281 214.207031 C 100.054688 214.28125 100.121094 214.355469 100.183594 214.433594 C 100.476562 214.773438 100.761719 215.117188 101.039062 215.472656 C 101.117188 215.570312 101.195312 215.671875 101.269531 215.769531 C 101.53125 216.113281 101.785156 216.464844 102.027344 216.820312 C 102.101562 216.929688 102.175781 217.035156 102.25 217.140625 C 102.496094 217.515625 102.738281 217.902344 102.96875 218.292969 C 103.023438 218.382812 103.078125 218.46875 103.128906 218.5625 C 103.691406 219.53125 104.191406 220.550781 104.632812 221.613281 C 104.679688 221.726562 104.71875 221.839844 104.761719 221.953125 C 104.925781 222.363281 105.082031 222.78125 105.226562 223.207031 C 105.292969 223.394531 105.347656 223.585938 105.410156 223.777344 C 105.523438 224.136719 105.628906 224.5 105.730469 224.867188 C 105.789062 225.089844 105.847656 225.316406 105.902344 225.542969 C 105.984375 225.894531 106.066406 226.25 106.136719 226.609375 C 106.1875 226.851562 106.234375 227.097656 106.277344 227.34375 C 106.34375 227.703125 106.398438 228.070312 106.449219 228.441406 C 106.484375 228.691406 106.523438 228.941406 106.550781 229.195312 C 106.597656 229.59375 106.628906 229.996094 106.660156 230.402344 C 106.679688 230.640625 106.703125 230.875 106.714844 231.113281 C 106.75 231.6875 106.765625 232.269531 106.769531 232.859375 C 106.769531 232.9375 106.773438 233.007812 106.773438 233.085938 C 106.773438 256.710938 111.1875 265.140625 117.128906 267.929688 C 123.601562 259.085938 134.042969 253.339844 145.832031 253.339844 L 234.847656 253.339844 C 235.421875 253.339844 236.042969 253.269531 236.699219 253.140625 C 236.722656 253.136719 236.746094 253.128906 236.769531 253.125 C 237.070312 253.0625 237.378906 252.992188 237.695312 252.90625 C 237.804688 252.878906 237.921875 252.839844 238.03125 252.804688 C 238.265625 252.738281 238.496094 252.671875 238.734375 252.59375 C 238.910156 252.535156 239.089844 252.464844 239.265625 252.402344 C 239.300781 252.390625 239.332031 252.378906 239.367188 252.367188 Z M 306.632812 369.394531 L 306.296875 369.417969 L 305.796875 369.453125 C 305.792969 369.441406 305.792969 369.433594 305.792969 369.417969 C 305.410156 364.242188 302.753906 363.867188 298.433594 363.867188 L 298.433594 363.027344 C 302.238281 363.027344 306.179688 363.027344 306.632812 369.394531 Z M 222.90625 126.621094 L 223.046875 127.445312 C 222.980469 127.457031 216.242188 128.6875 213.027344 135.636719 L 212.269531 135.285156 C 215.675781 127.921875 222.613281 126.667969 222.90625 126.621094 Z M 159.753906 300.328125 C 164.839844 310.511719 155.894531 322.398438 155.804688 322.519531 L 155.136719 322.007812 C 155.226562 321.894531 163.855469 310.417969 159.003906 300.703125 Z M 238.117188 311.15625 L 244.921875 321.292969 L 244.226562 321.761719 L 237.421875 311.625 Z M 271.53125 311.59375 L 263.976562 297.851562 L 264.710938 297.445312 L 272.265625 311.1875 Z M 271.53125 311.59375 " fill-opacity="1" fill-rule="nonzero"/></g></svg>