<svg xmlns="http://www.w3.org/2000/svg" xmlns:xlink="http://www.w3.org/1999/xlink" width="500" zoomAndPan="magnify" viewBox="0 0 375 374.999991" height="500" preserveAspectRatio="xMidYMid meet" version="1.0"><defs><clipPath id="857123ab6c"><path d="M 49 47 L 364 47 L 364 323 L 49 323 Z M 49 47 " clip-rule="nonzero"/></clipPath><clipPath id="b52bc76602"><path d="M 432.40625 187.394531 L 183.707031 421.0625 L -35.582031 187.667969 L 213.113281 -46 Z M 432.40625 187.394531 " clip-rule="nonzero"/></clipPath><clipPath id="f57177fddd"><path d="M 432.40625 187.394531 L 183.707031 421.0625 L -35.582031 187.667969 L 213.113281 -46 Z M 432.40625 187.394531 " clip-rule="nonzero"/></clipPath><clipPath id="6de10bf552"><path d="M 70 109 L 269 109 L 269 334.859375 L 70 334.859375 Z M 70 109 " clip-rule="nonzero"/></clipPath><clipPath id="5807f691d3"><path d="M 129 58.109375 L 339 58.109375 L 339 334.859375 L 129 334.859375 Z M 129 58.109375 " clip-rule="nonzero"/></clipPath></defs><g clip-path="url(#857123ab6c)"><g clip-path="url(#b52bc76602)"><g clip-path="url(#f57177fddd)"><path fill="#cdc3b4" d="M 72.566406 176.289062 C 40.875 218.179688 44.324219 262.980469 66.269531 291.691406 C 84.039062 314.945312 113.941406 327.640625 147.128906 319.683594 C 160.734375 316.421875 172.992188 309.382812 185.53125 301.546875 C 226.480469 275.960938 222.824219 275.910156 269.074219 275.136719 C 340.285156 273.9375 385.0625 182.175781 353.195312 120 C 334.1875 82.917969 292.332031 53.75 219.816406 68.402344 C 174.457031 77.566406 145.839844 25.460938 103.035156 59.210938 C 91.222656 68.523438 82.621094 82.410156 81.984375 97.144531 C 80.941406 121.179688 96.402344 144.785156 72.566406 176.289062 " fill-opacity="1" fill-rule="evenodd"/></g></g></g><path fill="#ebbfa9" d="M 365.261719 291.613281 L 330.035156 259 L 331.308594 258.417969 C 350.585938 249.582031 359.5625 234.941406 359.5625 212.34375 C 359.5625 191.796875 350.277344 175.496094 331.964844 163.898438 C 318.234375 155.203125 304.300781 152.570312 304.160156 152.542969 L 303.75 152.46875 L 298.039062 143.117188 L 289.46875 143.117188 L 289.257812 141.273438 C 296.109375 139.675781 301.839844 135.667969 305.714844 130.261719 C 306.316406 129.660156 306.789062 128.945312 307.09375 128.148438 C 309.625 123.851562 311.070312 118.847656 311.070312 113.527344 C 311.070312 107.625 309.292969 101.957031 305.933594 97.136719 L 305.34375 96.292969 L 306.238281 95.785156 C 312.371094 92.3125 316.179688 85.746094 316.179688 78.652344 C 316.179688 67.828125 307.472656 59.023438 296.773438 59.023438 C 286.074219 59.023438 277.371094 67.828125 277.371094 78.652344 C 277.371094 80.601562 277.652344 82.53125 278.214844 84.386719 L 278.511719 85.375 L 277.5 85.574219 C 272.523438 86.554688 267.890625 88.890625 264.101562 92.328125 L 263.835938 92.570312 L 255.542969 92.570312 L 246.699219 113.054688 L 253.960938 113.054688 L 253.6875 113.988281 L 252.714844 113.988281 C 252.082031 116.148438 251.734375 118.433594 251.734375 120.796875 C 251.734375 125.308594 252.972656 129.527344 255.121094 133.128906 L 256.207031 133.128906 L 256.765625 134.066406 L 246.808594 134.066406 L 246.660156 133.308594 C 244.132812 120.3125 232.78125 110.882812 219.667969 110.882812 C 208.199219 110.882812 197.824219 118.191406 193.851562 129.066406 L 193.722656 129.410156 L 193.398438 129.578125 C 188.390625 132.140625 182.421875 136.292969 182.417969 141.535156 C 182.410156 146.4375 186.609375 150.832031 194.898438 154.597656 L 195.75 154.984375 L 195.558594 155.40625 L 195.976562 155.589844 L 195.804688 156.34375 C 195.4375 157.929688 195 159.550781 194.5 161.171875 L 194.265625 161.921875 L 190.808594 161.480469 L 189.695312 170.269531 L 190.855469 170.417969 L 190.238281 171.609375 C 189.855469 172.34375 189.457031 173.082031 189.035156 173.820312 C 187.824219 175.933594 186.183594 178.351562 184.019531 181.214844 L 183.886719 181.390625 L 183.691406 181.484375 C 183.65625 181.503906 183.113281 181.78125 182.210938 182.257812 C 182.859375 181.265625 183.277344 180.648438 183.277344 180.648438 C 183.277344 180.648438 183.273438 180.652344 183.273438 180.652344 C 183.195312 180.691406 156.765625 194.109375 150.265625 202.605469 C 147.300781 206.484375 145.875 216.585938 145.234375 226.734375 C 145.195312 227.304688 145.164062 227.875 145.132812 228.445312 C 131.015625 247.460938 122.921875 263.785156 120.433594 278.296875 C 119.003906 286.628906 121.371094 296.929688 126.757812 305.851562 L 125.480469 307.140625 C 114.316406 300.472656 107.089844 290.507812 104.007812 277.527344 C 98.050781 252.421875 113.191406 226.917969 116.484375 221.777344 C 114.320312 220.851562 108.726562 218.761719 102.257812 218.761719 C 90.386719 218.761719 75.503906 225.78125 72.007812 259.222656 C 70.132812 277.171875 74.175781 291.996094 84.035156 303.285156 C 101.742188 323.5625 134.09375 328.671875 158.113281 329.386719 L 158.558594 329.453125 L 158.824219 329.746094 C 159.117188 330.070312 159.402344 330.378906 159.675781 330.667969 L 159.757812 330.753906 C 160.027344 331.039062 160.285156 331.308594 160.546875 331.574219 L 160.625 331.652344 C 160.859375 331.894531 161.085938 332.117188 161.289062 332.316406 L 161.984375 332.992188 L 162.488281 333.460938 C 162.488281 333.460938 162.945312 333.875 162.992188 333.917969 L 237.453125 333.914062 C 237.179688 332.957031 236.597656 331.402344 235.386719 329.558594 L 234.433594 328.109375 L 239.195312 328.109375 L 239.476562 328.480469 C 242.859375 332.972656 247.167969 333.914062 250.183594 333.914062 L 263.628906 333.914062 C 263.757812 332.933594 263.890625 331.101562 263.453125 329.261719 L 263.179688 328.109375 L 350.992188 328.109375 C 359.707031 328.109375 367.390625 322.859375 370.566406 314.734375 C 373.742188 306.613281 371.660156 297.535156 365.261719 291.613281 Z M 365.261719 291.613281 " fill-opacity="1" fill-rule="nonzero"/><path fill="#cc936b" d="M 304.328125 151.625 L 298.5625 142.183594 L 287.484375 142.183594 L 287.484375 150.3125 L 276.929688 162.851562 L 276.929688 144.664062 C 276.421875 144.699219 275.914062 144.722656 275.398438 144.722656 C 272.699219 144.722656 270.109375 144.257812 267.695312 143.417969 C 266.949219 148.269531 265.097656 153.410156 260.730469 155.34375 C 260.613281 155.398438 260.476562 155.453125 260.332031 155.511719 C 255.589844 157.542969 246.097656 160.496094 237.703125 162.960938 C 237.652344 162.980469 237.613281 162.992188 237.613281 162.992188 C 237.613281 162.992188 237.609375 162.992188 237.609375 162.992188 C 237.65625 164.078125 237.71875 165.273438 237.789062 166.507812 L 240.949219 166.910156 L 239.601562 177.554688 L 238.761719 177.449219 C 238.769531 177.492188 238.773438 177.539062 238.777344 177.582031 C 238.808594 177.808594 238.839844 178.035156 238.871094 178.257812 C 238.910156 178.558594 238.953125 178.851562 239 179.144531 C 239.074219 179.644531 239.15625 180.136719 239.238281 180.609375 C 239.253906 180.683594 239.265625 180.761719 239.277344 180.839844 C 240.945312 189.949219 247.746094 202.328125 247.449219 212.285156 C 247.449219 212.320312 247.445312 212.359375 247.445312 212.394531 C 247.433594 212.703125 247.414062 213.019531 247.386719 213.347656 C 247.375 213.464844 247.363281 213.589844 247.347656 213.714844 C 247.320312 213.988281 247.289062 214.265625 247.25 214.554688 C 247.234375 214.671875 247.21875 214.785156 247.203125 214.90625 C 247.082031 215.734375 246.914062 216.621094 246.710938 217.558594 C 246.695312 217.625 246.679688 217.691406 246.664062 217.761719 C 246.566406 218.195312 246.460938 218.644531 246.347656 219.101562 C 246.332031 219.152344 246.320312 219.203125 246.304688 219.257812 C 245.347656 223.039062 243.832031 227.507812 241.898438 232.457031 L 241.9375 232.773438 L 270.925781 231.707031 L 270.753906 231.507812 L 271.546875 231.484375 L 271.300781 231.695312 L 274.332031 231.582031 L 296.347656 259.125 L 285.542969 257.542969 L 295.199219 268.925781 C 309.285156 266.796875 321.632812 263.882812 331.695312 259.269531 C 349.796875 250.972656 360.496094 237.152344 360.496094 212.34375 C 360.496094 161.925781 304.328125 151.625 304.328125 151.625 Z M 304.328125 151.625 " fill-opacity="1" fill-rule="nonzero"/><g clip-path="url(#6de10bf552)"><path fill="#f7f0e8" d="M 264.421875 334.851562 C 264.421875 334.851562 254.28125 334.851562 250.179688 334.851562 C 246.078125 334.851562 239.546875 333.25 235.867188 323.804688 C 234.269531 319.699219 229.699219 307.050781 224.867188 293.546875 C 223.363281 309.0625 209.011719 320.894531 209.011719 320.894531 C 209.011719 320.894531 225.664062 317.722656 233.222656 325.421875 C 238.183594 330.484375 238.605469 334.851562 238.605469 334.851562 L 162.640625 334.851562 C 162.640625 334.851562 160.707031 333.222656 158.082031 330.324219 C 116.09375 329.070312 65.273438 314.617188 71.074219 259.125 C 77.1875 200.699219 117.867188 221.382812 117.867188 221.382812 C 117.867188 221.382812 98.300781 249.441406 104.917969 277.308594 C 108.382812 291.925781 116.800781 300.867188 125.957031 306.339844 C 120.285156 296.949219 118.082031 286.472656 119.511719 278.140625 C 122.53125 260.574219 133.105469 242.886719 145.226562 226.742188 C 144.46875 238.84375 144.824219 251.015625 145.019531 252.792969 C 145.394531 256.066406 153.445312 256.074219 153.550781 252.996094 C 153.660156 249.917969 153.390625 233.214844 153.390625 233.214844 C 153.390625 233.214844 158.023438 248.375 160.605469 254.148438 C 162.070312 257.429688 168.648438 252.25 167.703125 249.40625 C 166.769531 246.617188 161.082031 227.125 160.914062 226.515625 C 161.210938 227.199219 169.191406 245.300781 170.75 247.65625 C 172.328125 250.070312 178.859375 246.328125 177.429688 243.390625 C 176 240.464844 168.488281 221.820312 169.441406 217.789062 C 170.394531 213.75 171.609375 209.988281 171.609375 209.988281 C 171.609375 209.988281 177.730469 221.738281 184.625 222.964844 C 191.511719 224.1875 193.960938 221.101562 193.960938 221.101562 C 193.960938 221.101562 175.589844 200.542969 174.367188 198.0625 C 173.21875 195.734375 182.113281 182.367188 183.167969 180.796875 C 183.207031 180.75 183.222656 180.714844 183.242188 180.683594 C 183.261719 180.667969 183.269531 180.65625 183.269531 180.648438 C 185.289062 178 186.960938 175.558594 188.222656 173.363281 C 191.792969 167.121094 193.839844 160.902344 194.996094 155.675781 C 187.53125 152.371094 181.476562 147.769531 181.476562 141.539062 C 181.484375 136.011719 187.214844 131.691406 192.96875 128.746094 C 196.976562 117.773438 207.421875 109.953125 219.664062 109.953125 C 233.492188 109.953125 245.003906 119.914062 247.582031 133.132812 L 266.089844 133.132812 L 268.136719 135.320312 C 268.304688 140.277344 267.921875 152.15625 260.726562 155.347656 C 256.113281 157.386719 246.253906 160.453125 237.613281 162.988281 C 237.835938 168.21875 238.3125 175.558594 239.273438 180.84375 C 240.949219 189.957031 247.738281 202.328125 247.449219 212.292969 C 247.320312 216.875 245.207031 223.972656 241.898438 232.457031 L 254.066406 322.796875 C 267.316406 321.894531 264.421875 334.851562 264.421875 334.851562 Z M 264.421875 334.851562 " fill-opacity="1" fill-rule="nonzero"/></g><path fill="#705b4a" d="M 371.4375 315.078125 C 368.140625 323.503906 360.027344 329.046875 350.992188 329.046875 L 264.363281 329.046875 C 263.574219 325.730469 261.085938 322.320312 254.066406 322.796875 L 244.464844 251.523438 L 285.546875 257.542969 L 295.199219 268.925781 C 309.289062 266.792969 321.632812 263.882812 331.695312 259.265625 L 365.898438 290.925781 C 372.535156 297.066406 374.730469 306.652344 371.4375 315.078125 Z M 224.867188 293.546875 C 224.820312 294.023438 224.761719 294.5 224.691406 294.972656 C 224.6875 294.992188 224.683594 295.007812 224.683594 295.027344 C 224.617188 295.464844 224.539062 295.902344 224.453125 296.332031 C 224.445312 296.378906 224.4375 296.421875 224.425781 296.464844 C 224.246094 297.375 224.019531 298.265625 223.761719 299.140625 C 223.753906 299.167969 223.746094 299.199219 223.734375 299.230469 C 223.609375 299.660156 223.472656 300.082031 223.328125 300.5 C 223.328125 300.507812 223.324219 300.519531 223.320312 300.527344 C 223.023438 301.394531 222.691406 302.242188 222.335938 303.074219 C 222.324219 303.101562 222.3125 303.128906 222.300781 303.15625 C 221.761719 304.402344 221.164062 305.601562 220.53125 306.746094 C 220.527344 306.757812 220.519531 306.765625 220.515625 306.777344 C 220.089844 307.542969 219.648438 308.285156 219.199219 309.003906 C 219.191406 309.015625 219.183594 309.027344 219.175781 309.039062 C 218.496094 310.113281 217.796875 311.128906 217.097656 312.078125 C 217.089844 312.089844 217.078125 312.105469 217.070312 312.117188 C 216.367188 313.070312 215.664062 313.957031 214.980469 314.777344 C 214.976562 314.78125 214.972656 314.785156 214.972656 314.789062 C 214.519531 315.328125 214.078125 315.835938 213.648438 316.3125 C 213.636719 316.328125 213.621094 316.34375 213.609375 316.359375 C 212.976562 317.0625 212.382812 317.691406 211.839844 318.242188 C 211.824219 318.257812 211.804688 318.277344 211.789062 318.292969 C 211.433594 318.652344 211.105469 318.976562 210.808594 319.261719 C 210.789062 319.28125 210.773438 319.296875 210.753906 319.3125 C 210.621094 319.441406 210.492188 319.5625 210.371094 319.679688 C 210.359375 319.691406 210.347656 319.703125 210.332031 319.714844 C 210.074219 319.957031 209.84375 320.164062 209.65625 320.335938 C 209.636719 320.351562 209.621094 320.367188 209.605469 320.382812 C 209.523438 320.453125 209.445312 320.519531 209.382812 320.578125 C 209.375 320.585938 209.371094 320.589844 209.363281 320.59375 C 209.292969 320.65625 209.234375 320.707031 209.183594 320.753906 C 209.171875 320.761719 209.164062 320.765625 209.15625 320.777344 C 209.113281 320.8125 209.082031 320.839844 209.058594 320.859375 C 209.054688 320.863281 209.054688 320.863281 209.050781 320.863281 C 209.027344 320.882812 209.011719 320.894531 209.011719 320.894531 C 209.011719 320.894531 209.160156 320.867188 209.429688 320.824219 C 212.054688 320.394531 226.375 318.445312 233.21875 325.425781 C 234.464844 326.695312 235.425781 327.921875 236.164062 329.046875 L 238.726562 329.046875 C 237.667969 327.644531 236.691406 325.933594 235.863281 323.808594 C 234.265625 319.699219 229.699219 307.046875 224.867188 293.546875 Z M 244.8125 224.371094 C 245.402344 222.554688 245.902344 220.847656 246.308594 219.257812 C 246.320312 219.203125 246.332031 219.152344 246.347656 219.097656 C 246.460938 218.640625 246.566406 218.195312 246.664062 217.761719 C 246.679688 217.691406 246.695312 217.625 246.710938 217.554688 C 246.917969 216.621094 247.082031 215.734375 247.203125 214.902344 C 247.21875 214.785156 247.234375 214.667969 247.25 214.554688 C 247.289062 214.265625 247.324219 213.984375 247.351562 213.714844 C 247.363281 213.589844 247.375 213.464844 247.386719 213.34375 C 247.414062 213.015625 247.433594 212.699219 247.445312 212.394531 C 247.445312 212.359375 247.449219 212.320312 247.453125 212.285156 C 247.746094 202.328125 240.945312 189.949219 239.277344 180.835938 C 239.265625 180.761719 239.253906 180.683594 239.238281 180.605469 C 239.15625 180.132812 239.074219 179.644531 239 179.144531 C 238.953125 178.851562 238.910156 178.554688 238.871094 178.253906 C 238.839844 178.03125 238.808594 177.808594 238.78125 177.582031 C 238.773438 177.539062 238.769531 177.492188 238.761719 177.449219 L 208.808594 173.640625 L 228.832031 195.640625 L 228.949219 189.15625 C 228.949219 189.15625 240.898438 196.335938 243.109375 207.871094 C 245 217.742188 244.8125 224.371094 244.8125 224.371094 Z M 237.609375 162.988281 C 237.609375 162.988281 237.613281 162.988281 237.613281 162.988281 C 237.613281 162.988281 237.648438 162.980469 237.703125 162.960938 C 239.03125 162.558594 255.875 157.34375 260.332031 155.511719 C 260.476562 155.453125 260.613281 155.394531 260.730469 155.34375 C 265.097656 153.410156 266.949219 148.269531 267.695312 143.417969 C 267.714844 143.300781 267.738281 143.1875 267.753906 143.070312 C 266.941406 143.746094 265.652344 143.800781 264.808594 142.875 L 258.851562 136.328125 C 257.914062 135.300781 258.230469 133.8125 259.21875 133.128906 L 247.578125 133.128906 C 247.578125 133.128906 245.5625 140.953125 228.160156 142.125 C 224.972656 145.921875 225.769531 155.183594 229.25 158.765625 C 233.210938 162.847656 237.59375 162.988281 237.609375 162.988281 Z M 80.0625 268.921875 C 76.640625 241.269531 96.570312 225.757812 96.570312 225.757812 C 66.984375 239.746094 80.0625 268.921875 80.0625 268.921875 Z M 227.632812 239.195312 L 212.9375 219.261719 L 220.601562 236.402344 L 207.554688 259.125 Z M 217.824219 278.054688 C 206.527344 256.265625 172.796875 265.304688 172.796875 265.304688 C 213.910156 279.800781 203.632812 302.71875 203.632812 302.71875 L 210.363281 294.300781 C 211.492188 304.589844 203.632812 319.554688 203.632812 319.554688 C 203.632812 319.554688 229.117188 299.84375 217.824219 278.054688 Z M 220.601562 129.128906 L 214.816406 138.167969 L 214.816406 154.519531 L 201.527344 156.144531 L 220.601562 160.441406 Z M 273.085938 93.757812 L 256.09375 95.394531 L 249.335938 112.074219 L 267.089844 111.140625 Z M 303.605469 95.785156 L 307.03125 93.757812 C 307.03125 93.757812 304.308594 82.921875 293.640625 81.207031 C 282.972656 79.492188 278.769531 82.378906 278.769531 82.378906 L 279.15625 85.183594 Z M 303.605469 95.785156 " fill-opacity="1" fill-rule="nonzero"/><g clip-path="url(#5807f691d3)"><path fill="#3d3d3d" d="M 301.285156 123.59375 C 302.734375 123.59375 303.914062 124.707031 303.914062 126.074219 L 304.851562 126.074219 C 304.851562 124.191406 303.25 122.65625 301.285156 122.65625 L 298.042969 122.65625 L 298.042969 129.027344 L 298.976562 129.027344 L 298.976562 123.59375 Z M 274.402344 126.667969 C 274.402344 128.867188 272.074219 130.65625 269.207031 130.65625 C 266.339844 130.65625 264.007812 128.867188 264.007812 126.667969 L 263.074219 126.667969 C 263.074219 129.382812 265.824219 131.589844 269.207031 131.589844 C 272.585938 131.589844 275.339844 129.382812 275.339844 126.667969 Z M 268.628906 120.535156 L 267.371094 123.746094 C 267.28125 123.980469 267.308594 124.246094 267.445312 124.453125 C 267.585938 124.664062 267.816406 124.792969 268.0625 124.800781 L 270.464844 124.878906 L 270.5 123.945312 L 268.328125 123.875 L 269.5 120.875 Z M 276.847656 119.578125 C 276.847656 120.253906 277.394531 120.796875 278.070312 120.796875 C 278.742188 120.796875 279.289062 120.253906 279.289062 119.578125 C 279.289062 118.902344 278.742188 118.355469 278.070312 118.355469 C 277.394531 118.355469 276.847656 118.902344 276.847656 119.578125 Z M 260.34375 120.796875 C 261.015625 120.796875 261.5625 120.253906 261.5625 119.578125 C 261.5625 118.902344 261.019531 118.355469 260.34375 118.355469 C 259.671875 118.355469 259.125 118.902344 259.125 119.578125 C 259.125 120.25 259.671875 120.796875 260.34375 120.796875 Z M 234.160156 211.9375 L 238.714844 226.863281 L 239.605469 226.589844 L 235.054688 211.660156 Z M 308.066406 209.53125 C 308.679688 206.144531 311.433594 190.769531 312.46875 182.519531 C 313.597656 173.546875 322.625 169.46875 322.714844 169.425781 L 322.339844 168.570312 C 322.242188 168.613281 312.738281 172.894531 311.542969 182.402344 C 310.457031 191.027344 307.484375 207.5 307.070312 209.78125 L 276.902344 220.890625 L 276.902344 166.707031 L 275.96875 166.707031 L 275.96875 221.238281 L 265.992188 224.910156 L 265.363281 225.144531 L 270.925781 231.707031 L 271.078125 231.882812 L 271.300781 231.691406 L 271.789062 231.277344 L 266.941406 225.558594 L 307.625 210.574219 C 308.195312 210.433594 325.460938 206.480469 338.042969 222.6875 L 338.78125 222.113281 C 327.113281 207.089844 311.507812 208.910156 308.066406 209.53125 Z M 292.507812 151.0625 L 297.976562 158.855469 L 303.738281 152.707031 L 303.058594 152.066406 L 298.078125 157.378906 L 292.597656 149.5625 L 281.65625 161.664062 L 282.347656 162.289062 Z M 274.796875 161.976562 L 274.796875 148.832031 L 268.804688 157.378906 L 265.339844 153.683594 L 264.660156 154.324219 L 268.910156 158.855469 L 273.863281 151.792969 L 273.863281 161.976562 Z M 252.714844 113.992188 L 245.277344 113.992188 L 254.929688 91.636719 L 263.476562 91.636719 C 267.308594 88.15625 272.0625 85.691406 277.320312 84.660156 C 276.746094 82.757812 276.4375 80.742188 276.4375 78.652344 C 276.4375 67.296875 285.542969 58.089844 296.773438 58.089844 C 308.007812 58.089844 317.113281 67.296875 317.113281 78.652344 C 317.113281 86.363281 312.910156 93.082031 306.699219 96.601562 C 310.039062 101.386719 312.003906 107.222656 312.003906 113.527344 C 312.003906 127.492188 302.378906 139.171875 289.472656 142.183594 L 287.484375 142.183594 L 287.484375 141.363281 C 291.160156 139.148438 294.195312 135.957031 296.234375 132.140625 L 301.117188 132.140625 C 304.632812 132.140625 307.484375 129.425781 307.484375 126.074219 C 307.484375 122.726562 304.632812 120.011719 301.117188 120.011719 L 299.039062 120.011719 C 298.726562 110.347656 292.753906 102.136719 284.359375 98.660156 L 277.738281 113.992188 Z M 279.65625 83.820312 L 279.757812 84.75 C 280.796875 84.636719 281.859375 84.578125 282.910156 84.578125 C 291.132812 84.578125 298.96875 88.160156 304.40625 94.40625 L 305.113281 93.792969 C 299.496094 87.339844 291.402344 83.640625 282.910156 83.640625 C 281.824219 83.644531 280.730469 83.703125 279.65625 83.820312 Z M 261.75 109.761719 L 262.609375 110.132812 L 268.246094 97.078125 L 267.390625 96.707031 Z M 252.84375 109.761719 L 253.703125 110.132812 L 259.339844 97.078125 L 258.484375 96.707031 Z M 280.949219 177.660156 C 280.371094 177.660156 279.898438 178.132812 279.898438 178.714844 C 279.898438 179.296875 280.371094 179.765625 280.949219 179.765625 C 281.53125 179.765625 282 179.296875 282 178.714844 C 282 178.132812 281.53125 177.660156 280.949219 177.660156 Z M 280.949219 188.484375 C 280.371094 188.484375 279.898438 188.953125 279.898438 189.535156 C 279.898438 190.117188 280.371094 190.585938 280.949219 190.585938 C 281.53125 190.585938 282 190.117188 282 189.535156 C 282 188.953125 281.53125 188.484375 280.949219 188.484375 Z M 280.949219 199.304688 C 280.371094 199.304688 279.898438 199.777344 279.898438 200.355469 C 279.898438 200.9375 280.371094 201.410156 280.949219 201.410156 C 281.53125 201.410156 282 200.9375 282 200.355469 C 282 199.777344 281.53125 199.304688 280.949219 199.304688 Z M 280.949219 210.125 C 280.371094 210.125 279.898438 210.597656 279.898438 211.179688 C 279.898438 211.757812 280.371094 212.230469 280.949219 212.230469 C 281.53125 212.230469 282 211.757812 282 211.179688 C 282 210.597656 281.53125 210.125 280.949219 210.125 Z M 130.125 311.523438 L 129.394531 312.105469 C 133.949219 317.804688 139.511719 322.324219 145.929688 325.535156 L 146.347656 324.699219 C 140.050781 321.546875 134.59375 317.113281 130.125 311.523438 Z M 158.261719 219.917969 L 160.285156 225.90625 L 161.171875 225.605469 L 159.148438 219.617188 Z M 151.324219 223.664062 L 152.203125 229.921875 L 153.128906 229.792969 L 152.25 223.53125 Z M 221.382812 325.105469 L 221.382812 326.039062 C 228.464844 326.039062 232.808594 326.585938 233.414062 334.144531 L 234.347656 334.070312 C 233.628906 325.105469 227.402344 325.105469 221.382812 325.105469 Z M 253.851562 326.976562 L 253.851562 327.910156 C 258.6875 327.910156 261.648438 328.328125 262.0625 334.140625 L 262.996094 334.074219 C 262.488281 326.976562 258.097656 326.976562 253.851562 326.976562 Z M 258.847656 136.328125 L 264.808594 142.875 C 265.652344 143.800781 266.9375 143.746094 267.753906 143.070312 C 268.203125 142.695312 268.511719 142.136719 268.511719 141.441406 L 268.511719 135.019531 C 268.511719 133.863281 267.585938 132.917969 266.425781 132.890625 L 260.46875 132.761719 C 259.984375 132.75 259.558594 132.894531 259.214844 133.132812 C 258.230469 133.8125 257.914062 135.300781 258.847656 136.328125 Z M 237.316406 137.449219 C 238.109375 137.449219 238.75 136.808594 238.75 136.019531 C 238.75 135.226562 238.109375 134.585938 237.316406 134.585938 C 236.527344 134.585938 235.886719 135.226562 235.886719 136.019531 C 235.886719 136.808594 236.527344 137.449219 237.316406 137.449219 Z M 193.605469 160.894531 L 190 160.433594 L 188.648438 171.082031 L 189.40625 171.175781 L 208.808594 173.644531 L 238.761719 177.449219 L 239.601562 177.554688 L 240.949219 166.910156 L 237.789062 166.507812 Z M 222.621094 163.417969 L 223.148438 163.484375 L 223.148438 133.132812 L 222.210938 133.132812 L 222.210938 162.417969 C 219.34375 162.015625 205.351562 159.867188 194.703125 155.027344 L 194.511719 155.449219 L 194.316406 155.882812 C 194.503906 155.96875 194.699219 156.050781 194.890625 156.136719 C 206.820312 161.390625 222.464844 163.394531 222.621094 163.417969 Z M 259.722656 154.054688 L 246.570312 154.054688 C 244.523438 154.054688 243.0625 153.480469 242.226562 152.351562 C 240.699219 150.296875 241.664062 147.007812 241.671875 146.976562 L 240.78125 146.707031 C 240.734375 146.859375 239.667969 150.472656 241.472656 152.90625 C 242.496094 154.289062 244.210938 154.988281 246.570312 154.988281 L 259.722656 154.988281 Z M 224.035156 282.59375 C 222.667969 278.4375 220.300781 274.472656 216.992188 270.816406 C 205.617188 258.230469 183.371094 257.726562 168.214844 263.644531 L 168.554688 264.515625 C 183.421875 258.710938 205.207031 259.167969 216.300781 271.445312 C 219.519531 275.003906 221.824219 278.855469 223.148438 282.886719 Z M 302.335938 290.578125 L 265.4375 256.429688 L 263.8125 256.1875 L 301.699219 291.273438 C 308.242188 297.324219 310.371094 306.601562 307.117188 314.910156 C 305.316406 319.53125 301.933594 323.410156 297.597656 325.84375 L 298.054688 326.65625 C 302.578125 324.121094 306.101562 320.070312 307.988281 315.246094 C 311.378906 306.585938 309.15625 296.902344 302.335938 290.578125 Z M 302.335938 290.578125 " fill-opacity="1" fill-rule="nonzero"/></g></svg>